<svg width="620" height="670" preserveAspectRatio="xMinYMin meet" viewBox="0 0 620 670" xmlns="http://www.w3.org/2000/svg" version="1.0" fill-rule="evenodd" xmlns:xlink="http://www.w3.org/1999/xlink">
	<title>...</title>
	<desc>...</desc>
	<clipPath id="clip">
		<rect x="0" y="0" width="620" height="670"/>
	</clipPath>
	<g id="group" transform="scale(1,-1) translate(0,-670)" style="clip-path: url(#clip)">
		<g transform="">
			<rect x="0" y="0" width="620" height="670" style="stroke: none; stroke-linecap: butt; stroke-width: 1; fill: rgb(98%,97%,94%); fill-rule: evenodd;"/>
			<path d="M 230.636364,46 L 230.636364,628 Z" style="stroke: rgb(86%,87%,83%); stroke-linecap: butt; stroke-width: 0.35;"/>
			<path d="M 243.863636,46 L 243.863636,628 Z" style="stroke: rgb(86%,87%,83%); stroke-linecap: butt; stroke-width: 0.35;"/>
			<path d="M 257.090909,46 L 257.090909,628 Z" style="stroke: rgb(86%,87%,83%); stroke-linecap: butt; stroke-width: 0.35;"/>
			<path d="M 270.318182,46 L 270.318182,628 Z" style="stroke: rgb(86%,87%,83%); stroke-linecap: butt; stroke-width: 0.35;"/>
			<path d="M 283.545455,46 L 283.545455,628 Z" style="stroke: rgb(86%,87%,83%); stroke-linecap: butt; stroke-width: 0.35;"/>
			<path d="M 296.772727,46 L 296.772727,628 Z" style="stroke: rgb(86%,87%,83%); stroke-linecap: butt; stroke-width: 0.35;"/>
			<path d="M 310,46 L 310,628 Z" style="stroke: rgb(86%,87%,83%); stroke-linecap: butt; stroke-width: 0.35;"/>
			<path d="M 323.227273,46 L 323.227273,628 Z" style="stroke: rgb(86%,87%,83%); stroke-linecap: butt; stroke-width: 0.35;"/>
			<path d="M 336.454545,46 L 336.454545,628 Z" style="stroke: rgb(86%,87%,83%); stroke-linecap: butt; stroke-width: 0.35;"/>
			<path d="M 349.681818,46 L 349.681818,628 Z" style="stroke: rgb(86%,87%,83%); stroke-linecap: butt; stroke-width: 0.35;"/>
			<path d="M 362.909091,46 L 362.909091,628 Z" style="stroke: rgb(86%,87%,83%); stroke-linecap: butt; stroke-width: 0.35;"/>
			<path d="M 376.136364,46 L 376.136364,628 Z" style="stroke: rgb(86%,87%,83%); stroke-linecap: butt; stroke-width: 0.35;"/>
			<path d="M 389.363636,46 L 389.363636,628 Z" style="stroke: rgb(86%,87%,83%); stroke-linecap: butt; stroke-width: 0.35;"/>
			<path d="M 224.022727,46 L 395.977273,46 Z" style="stroke: rgb(86%,87%,83%); stroke-linecap: butt; stroke-width: 0.35;"/>
			<path d="M 224.022727,59.227273 L 395.977273,59.227273 Z" style="stroke: rgb(86%,87%,83%); stroke-linecap: butt; stroke-width: 0.35;"/>
			<path d="M 224.022727,72.454545 L 395.977273,72.454545 Z" style="stroke: rgb(86%,87%,83%); stroke-linecap: butt; stroke-width: 0.35;"/>
			<path d="M 224.022727,85.681818 L 395.977273,85.681818 Z" style="stroke: rgb(86%,87%,83%); stroke-linecap: butt; stroke-width: 0.35;"/>
			<path d="M 224.022727,98.909091 L 395.977273,98.909091 Z" style="stroke: rgb(86%,87%,83%); stroke-linecap: butt; stroke-width: 0.35;"/>
			<path d="M 224.022727,112.136364 L 395.977273,112.136364 Z" style="stroke: rgb(86%,87%,83%); stroke-linecap: butt; stroke-width: 0.35;"/>
			<path d="M 224.022727,125.363636 L 395.977273,125.363636 Z" style="stroke: rgb(86%,87%,83%); stroke-linecap: butt; stroke-width: 0.35;"/>
			<path d="M 224.022727,138.590909 L 395.977273,138.590909 Z" style="stroke: rgb(86%,87%,83%); stroke-linecap: butt; stroke-width: 0.35;"/>
			<path d="M 224.022727,151.818182 L 395.977273,151.818182 Z" style="stroke: rgb(86%,87%,83%); stroke-linecap: butt; stroke-width: 0.35;"/>
			<path d="M 224.022727,165.045455 L 395.977273,165.045455 Z" style="stroke: rgb(86%,87%,83%); stroke-linecap: butt; stroke-width: 0.35;"/>
			<path d="M 224.022727,178.272727 L 395.977273,178.272727 Z" style="stroke: rgb(86%,87%,83%); stroke-linecap: butt; stroke-width: 0.35;"/>
			<path d="M 224.022727,191.5 L 395.977273,191.5 Z" style="stroke: rgb(86%,87%,83%); stroke-linecap: butt; stroke-width: 0.35;"/>
			<path d="M 224.022727,204.727273 L 395.977273,204.727273 Z" style="stroke: rgb(86%,87%,83%); stroke-linecap: butt; stroke-width: 0.35;"/>
			<path d="M 224.022727,217.954545 L 395.977273,217.954545 Z" style="stroke: rgb(86%,87%,83%); stroke-linecap: butt; stroke-width: 0.35;"/>
			<path d="M 224.022727,231.181818 L 395.977273,231.181818 Z" style="stroke: rgb(86%,87%,83%); stroke-linecap: butt; stroke-width: 0.35;"/>
			<path d="M 224.022727,244.409091 L 395.977273,244.409091 Z" style="stroke: rgb(86%,87%,83%); stroke-linecap: butt; stroke-width: 0.35;"/>
			<path d="M 224.022727,257.636364 L 395.977273,257.636364 Z" style="stroke: rgb(86%,87%,83%); stroke-linecap: butt; stroke-width: 0.35;"/>
			<path d="M 224.022727,270.863636 L 395.977273,270.863636 Z" style="stroke: rgb(86%,87%,83%); stroke-linecap: butt; stroke-width: 0.35;"/>
			<path d="M 224.022727,284.090909 L 395.977273,284.090909 Z" style="stroke: rgb(86%,87%,83%); stroke-linecap: butt; stroke-width: 0.35;"/>
			<path d="M 224.022727,297.318182 L 395.977273,297.318182 Z" style="stroke: rgb(86%,87%,83%); stroke-linecap: butt; stroke-width: 0.35;"/>
			<path d="M 224.022727,310.545455 L 395.977273,310.545455 Z" style="stroke: rgb(86%,87%,83%); stroke-linecap: butt; stroke-width: 0.35;"/>
			<path d="M 224.022727,323.772727 L 395.977273,323.772727 Z" style="stroke: rgb(86%,87%,83%); stroke-linecap: butt; stroke-width: 0.35;"/>
			<path d="M 224.022727,337 L 395.977273,337 Z" style="stroke: rgb(86%,87%,83%); stroke-linecap: butt; stroke-width: 0.35;"/>
			<path d="M 224.022727,350.227273 L 395.977273,350.227273 Z" style="stroke: rgb(86%,87%,83%); stroke-linecap: butt; stroke-width: 0.35;"/>
			<path d="M 224.022727,363.454545 L 395.977273,363.454545 Z" style="stroke: rgb(86%,87%,83%); stroke-linecap: butt; stroke-width: 0.35;"/>
			<path d="M 224.022727,376.681818 L 395.977273,376.681818 Z" style="stroke: rgb(86%,87%,83%); stroke-linecap: butt; stroke-width: 0.35;"/>
			<path d="M 224.022727,389.909091 L 395.977273,389.909091 Z" style="stroke: rgb(86%,87%,83%); stroke-linecap: butt; stroke-width: 0.35;"/>
			<path d="M 224.022727,403.136364 L 395.977273,403.136364 Z" style="stroke: rgb(86%,87%,83%); stroke-linecap: butt; stroke-width: 0.35;"/>
			<path d="M 224.022727,416.363636 L 395.977273,416.363636 Z" style="stroke: rgb(86%,87%,83%); stroke-linecap: butt; stroke-width: 0.35;"/>
			<path d="M 224.022727,429.590909 L 395.977273,429.590909 Z" style="stroke: rgb(86%,87%,83%); stroke-linecap: butt; stroke-width: 0.35;"/>
			<path d="M 224.022727,442.818182 L 395.977273,442.818182 Z" style="stroke: rgb(86%,87%,83%); stroke-linecap: butt; stroke-width: 0.35;"/>
			<path d="M 224.022727,456.045455 L 395.977273,456.045455 Z" style="stroke: rgb(86%,87%,83%); stroke-linecap: butt; stroke-width: 0.35;"/>
			<path d="M 224.022727,469.272727 L 395.977273,469.272727 Z" style="stroke: rgb(86%,87%,83%); stroke-linecap: butt; stroke-width: 0.35;"/>
			<path d="M 224.022727,482.5 L 395.977273,482.5 Z" style="stroke: rgb(86%,87%,83%); stroke-linecap: butt; stroke-width: 0.35;"/>
			<path d="M 224.022727,495.727273 L 395.977273,495.727273 Z" style="stroke: rgb(86%,87%,83%); stroke-linecap: butt; stroke-width: 0.35;"/>
			<path d="M 224.022727,508.954545 L 395.977273,508.954545 Z" style="stroke: rgb(86%,87%,83%); stroke-linecap: butt; stroke-width: 0.35;"/>
			<path d="M 224.022727,522.181818 L 395.977273,522.181818 Z" style="stroke: rgb(86%,87%,83%); stroke-linecap: butt; stroke-width: 0.35;"/>
			<path d="M 224.022727,535.409091 L 395.977273,535.409091 Z" style="stroke: rgb(86%,87%,83%); stroke-linecap: butt; stroke-width: 0.35;"/>
			<path d="M 224.022727,548.636364 L 395.977273,548.636364 Z" style="stroke: rgb(86%,87%,83%); stroke-linecap: butt; stroke-width: 0.35;"/>
			<path d="M 224.022727,561.863636 L 395.977273,561.863636 Z" style="stroke: rgb(86%,87%,83%); stroke-linecap: butt; stroke-width: 0.35;"/>
			<path d="M 224.022727,575.090909 L 395.977273,575.090909 Z" style="stroke: rgb(86%,87%,83%); stroke-linecap: butt; stroke-width: 0.35;"/>
			<path d="M 224.022727,588.318182 L 395.977273,588.318182 Z" style="stroke: rgb(86%,87%,83%); stroke-linecap: butt; stroke-width: 0.35;"/>
			<path d="M 224.022727,601.545455 L 395.977273,601.545455 Z" style="stroke: rgb(86%,87%,83%); stroke-linecap: butt; stroke-width: 0.35;"/>
			<path d="M 224.022727,614.772727 L 395.977273,614.772727 Z" style="stroke: rgb(86%,87%,83%); stroke-linecap: butt; stroke-width: 0.35;"/>
			<path d="M 224.022727,628 L 395.977273,628 Z" style="stroke: rgb(86%,87%,83%); stroke-linecap: butt; stroke-width: 0.35;"/>
			<rect x="224.02272727272728" y="46.0" width="171.95454545454547" height="582.0" style="stroke: rgb(66%,71%,67%); stroke-linecap: butt; stroke-width: 0.8; fill: none; fill-rule: evenodd;"/>
			<text x="238.69054066051137" y="32.0" style="font-family: Atlas; font-size: 7px;fill: rgb(14%,20%,18%); stroke:none;" transform="translate(0,64) scale(1,-1)">-10</text>
			<text x="308.11328125" y="32.0" style="font-family: Atlas; font-size: 7px;fill: rgb(14%,20%,18%); stroke:none;" transform="translate(0,64) scale(1,-1)">0</text>
			<text x="372.3629261363636" y="32.0" style="font-family: Atlas; font-size: 7px;fill: rgb(14%,20%,18%); stroke:none;" transform="translate(0,64) scale(1,-1)">10</text>
			<text x="213.24928977272728" y="96.9090909090909" style="font-family: Atlas; font-size: 7px;fill: rgb(14%,20%,18%); stroke:none;" transform="translate(0,193) scale(1,-1)">0</text>
			<text x="209.47585227272728" y="163.04545454545453" style="font-family: Atlas; font-size: 7px;fill: rgb(14%,20%,18%); stroke:none;" transform="translate(0,326) scale(1,-1)">10</text>
			<text x="209.47585227272728" y="229.1818181818182" style="font-family: Atlas; font-size: 7px;fill: rgb(14%,20%,18%); stroke:none;" transform="translate(0,458) scale(1,-1)">20</text>
			<text x="209.47585227272728" y="295.3181818181818" style="font-family: Atlas; font-size: 7px;fill: rgb(14%,20%,18%); stroke:none;" transform="translate(0,590) scale(1,-1)">30</text>
			<text x="209.47585227272728" y="361.45454545454544" style="font-family: Atlas; font-size: 7px;fill: rgb(14%,20%,18%); stroke:none;" transform="translate(0,722) scale(1,-1)">40</text>
			<text x="209.47585227272728" y="427.59090909090907" style="font-family: Atlas; font-size: 7px;fill: rgb(14%,20%,18%); stroke:none;" transform="translate(0,855) scale(1,-1)">50</text>
			<text x="209.47585227272728" y="493.7272727272727" style="font-family: Atlas; font-size: 7px;fill: rgb(14%,20%,18%); stroke:none;" transform="translate(0,987) scale(1,-1)">60</text>
			<text x="209.47585227272728" y="559.8636363636364" style="font-family: Atlas; font-size: 7px;fill: rgb(14%,20%,18%); stroke:none;" transform="translate(0,1119) scale(1,-1)">70</text>
			<text x="209.47585227272728" y="626.0" style="font-family: Atlas; font-size: 7px;fill: rgb(14%,20%,18%); stroke:none;" transform="translate(0,1252) scale(1,-1)">80</text>
			<rect x="276.9318181818182" y="72.45454545454545" width="66.13636363636363" height="59.522727272727266" style="stroke: rgb(49%,55%,51%); stroke-linecap: butt; stroke-width: 0.65; fill: rgb(81%,84%,80%); fill-rule: evenodd;"/>
			<text x="305.271484375" y="104.2159090909091" style="font-family: AtlasBold; font-size: 8px;fill: rgb(14%,20%,18%); stroke:none;" transform="translate(0,208) scale(1,-1)">Z1</text>
			<rect x="323.22727272727275" y="191.5" width="19.840909090909065" height="39.68181818181819" style="stroke: rgb(49%,55%,51%); stroke-linecap: butt; stroke-width: 0.65; fill: rgb(81%,84%,80%); fill-rule: evenodd;"/>
			<text x="328.41921164772725" y="213.3409090909091" style="font-family: AtlasBold; font-size: 8px;fill: rgb(14%,20%,18%); stroke:none;" transform="translate(0,426) scale(1,-1)">Z2</text>
			<rect x="230.63636363636365" y="178.27272727272725" width="33.06818181818184" height="105.81818181818181" style="stroke: rgb(49%,55%,51%); stroke-linecap: butt; stroke-width: 0.65; fill: rgb(65%,71%,74%); fill-rule: evenodd;"/>
			<text x="242.44193892045456" y="233.1818181818182" style="font-family: AtlasBold; font-size: 8px;fill: rgb(14%,20%,18%); stroke:none;" transform="translate(0,466) scale(1,-1)">Z3</text>
			<rect x="282.2227272727273" y="290.70454545454544" width="55.55454545454546" height="33.06818181818181" style="stroke: rgb(49%,55%,51%); stroke-linecap: butt; stroke-width: 0.65; fill: rgb(81%,84%,80%); fill-rule: evenodd;"/>
			<text x="305.271484375" y="309.2386363636364" style="font-family: AtlasBold; font-size: 8px;fill: rgb(14%,20%,18%); stroke:none;" transform="translate(0,618) scale(1,-1)">Z4</text>
			<rect x="276.9318181818182" y="343.6136363636364" width="66.13636363636363" height="56.215909090909065" style="stroke: rgb(49%,55%,51%); stroke-linecap: butt; stroke-width: 0.65; fill: rgb(81%,84%,80%); fill-rule: evenodd;"/>
			<text x="305.271484375" y="373.7215909090909" style="font-family: AtlasBold; font-size: 8px;fill: rgb(14%,20%,18%); stroke:none;" transform="translate(0,747) scale(1,-1)">Z5</text>
			<rect x="283.54545454545456" y="356.84090909090907" width="52.909090909090935" height="39.68181818181819" style="stroke: rgb(49%,55%,51%); stroke-linecap: butt; stroke-width: 0.65; fill: rgb(93%,79%,76%); fill-rule: evenodd;"/>
			<text x="305.271484375" y="378.6818181818182" style="font-family: AtlasBold; font-size: 8px;fill: rgb(14%,20%,18%); stroke:none;" transform="translate(0,757) scale(1,-1)">Z6</text>
			<rect x="270.3181818181818" y="442.8181818181818" width="79.36363636363637" height="46.29545454545456" style="stroke: rgb(49%,55%,51%); stroke-linecap: butt; stroke-width: 0.65; fill: rgb(65%,71%,74%); fill-rule: evenodd;"/>
			<text x="305.271484375" y="467.96590909090907" style="font-family: AtlasBold; font-size: 8px;fill: rgb(14%,20%,18%); stroke:none;" transform="translate(0,935) scale(1,-1)">Z7</text>
			<rect x="290.1590909090909" y="403.1363636363636" width="39.68181818181819" height="33.06818181818181" style="stroke: rgb(49%,55%,51%); stroke-linecap: butt; stroke-width: 0.65; fill: rgb(81%,84%,80%); fill-rule: evenodd;"/>
			<text x="305.271484375" y="421.6704545454545" style="font-family: AtlasBold; font-size: 8px;fill: rgb(14%,20%,18%); stroke:none;" transform="translate(0,843) scale(1,-1)">Z8</text>
			<polyline points="310 105.5227, 310 204.7273" style="stroke: rgb(44%,35%,19%); stroke-linecap: round; stroke-width: 26.454545454545453; fill: None; fill-rule: evenodd;"/>
			<polyline points="310 105.5227, 310 204.7273" style="stroke: rgb(44%,35%,19%); stroke-linecap: butt; stroke-width: 1; fill: None; fill-rule: evenodd;"/>
			<polyline points="310 204.7273, 310 297.3182" style="stroke: rgb(44%,35%,19%); stroke-linecap: round; stroke-width: 26.454545454545453; fill: None; fill-rule: evenodd;"/>
			<polyline points="310 204.7273, 310 297.3182" style="stroke: rgb(44%,35%,19%); stroke-linecap: butt; stroke-width: 1; fill: None; fill-rule: evenodd;"/>
			<polyline points="310 297.3182, 310 323.7727" style="stroke: rgb(44%,35%,19%); stroke-linecap: round; stroke-width: 26.454545454545453; fill: None; fill-rule: evenodd;"/>
			<polyline points="310 297.3182, 310 323.7727" style="stroke: rgb(44%,35%,19%); stroke-linecap: butt; stroke-width: 1; fill: None; fill-rule: evenodd;"/>
			<text x="314.0" y="209.72727272727272" style="font-family: AtlasBold; font-size: 7px;fill: rgb(44%,35%,19%); stroke:none;" transform="translate(0,419) scale(1,-1)">A</text>
			<polyline points="310 105.5227, 302.0636 131.9773" style="stroke: rgb(44%,35%,19%); stroke-linecap: round; stroke-width: 9.259090909090908; fill: None; fill-rule: evenodd;"/>
			<polyline points="310 105.5227, 302.0636 131.9773" style="stroke: rgb(44%,35%,19%); stroke-linecap: butt; stroke-width: 1; fill: None; fill-rule: evenodd;"/>
			<polyline points="302.0636 131.9773, 317.9364 211.3409" style="stroke: rgb(44%,35%,19%); stroke-linecap: round; stroke-width: 9.259090909090908; fill: None; fill-rule: evenodd;"/>
			<polyline points="302.0636 131.9773, 317.9364 211.3409" style="stroke: rgb(44%,35%,19%); stroke-linecap: butt; stroke-width: 1; fill: None; fill-rule: evenodd;"/>
			<polyline points="317.9364 211.3409, 302.0636 310.5455" style="stroke: rgb(44%,35%,19%); stroke-linecap: round; stroke-width: 9.259090909090908; fill: None; fill-rule: evenodd;"/>
			<polyline points="317.9364 211.3409, 302.0636 310.5455" style="stroke: rgb(44%,35%,19%); stroke-linecap: butt; stroke-width: 1; fill: None; fill-rule: evenodd;"/>
			<polyline points="302.0636 310.5455, 310 323.7727" style="stroke: rgb(44%,35%,19%); stroke-linecap: round; stroke-width: 9.259090909090908; fill: None; fill-rule: evenodd;"/>
			<polyline points="302.0636 310.5455, 310 323.7727" style="stroke: rgb(44%,35%,19%); stroke-linecap: butt; stroke-width: 1; fill: None; fill-rule: evenodd;"/>
			<text x="306.06363636363636" y="136.97727272727272" style="font-family: AtlasBold; font-size: 7px;fill: rgb(44%,35%,19%); stroke:none;" transform="translate(0,273) scale(1,-1)">Q</text>
			<polyline points="282.2227 337, 282.2227 393.2159" style="stroke: rgb(44%,35%,19%); stroke-linecap: round; stroke-width: 9.259090909090908; fill: None; fill-rule: evenodd;"/>
			<polyline points="282.2227 337, 282.2227 393.2159" style="stroke: rgb(44%,35%,19%); stroke-linecap: butt; stroke-width: 1; fill: None; fill-rule: evenodd;"/>
			<polyline points="282.2227 393.2159, 337.7773 393.2159" style="stroke: rgb(44%,35%,19%); stroke-linecap: round; stroke-width: 9.259090909090908; fill: None; fill-rule: evenodd;"/>
			<polyline points="282.2227 393.2159, 337.7773 393.2159" style="stroke: rgb(44%,35%,19%); stroke-linecap: butt; stroke-width: 1; fill: None; fill-rule: evenodd;"/>
			<polyline points="337.7773 393.2159, 337.7773 337" style="stroke: rgb(44%,35%,19%); stroke-linecap: round; stroke-width: 9.259090909090908; fill: None; fill-rule: evenodd;"/>
			<polyline points="337.7773 393.2159, 337.7773 337" style="stroke: rgb(44%,35%,19%); stroke-linecap: butt; stroke-width: 1; fill: None; fill-rule: evenodd;"/>
			<polyline points="337.7773 337, 282.2227 337" style="stroke: rgb(44%,35%,19%); stroke-linecap: round; stroke-width: 9.259090909090908; fill: None; fill-rule: evenodd;"/>
			<polyline points="337.7773 337, 282.2227 337" style="stroke: rgb(44%,35%,19%); stroke-linecap: butt; stroke-width: 1; fill: None; fill-rule: evenodd;"/>
			<text x="286.2227272727273" y="398.21590909090907" style="font-family: AtlasBold; font-size: 7px;fill: rgb(44%,35%,19%); stroke:none;" transform="translate(0,796) scale(1,-1)">B</text>
			<polyline points="310 323.7727, 310 376.6818" style="stroke: rgb(44%,35%,19%); stroke-linecap: round; stroke-width: 19.84090909090909; fill: None; fill-rule: evenodd;"/>
			<polyline points="310 323.7727, 310 376.6818" style="stroke: rgb(44%,35%,19%); stroke-linecap: butt; stroke-width: 1; fill: None; fill-rule: evenodd;"/>
			<polyline points="310 376.6818, 310 413.0568" style="stroke: rgb(44%,35%,19%); stroke-linecap: round; stroke-width: 19.84090909090909; fill: None; fill-rule: evenodd;"/>
			<polyline points="310 376.6818, 310 413.0568" style="stroke: rgb(44%,35%,19%); stroke-linecap: butt; stroke-width: 1; fill: None; fill-rule: evenodd;"/>
			<text x="314.0" y="328.77272727272725" style="font-family: AtlasBold; font-size: 7px;fill: rgb(44%,35%,19%); stroke:none;" transform="translate(0,657) scale(1,-1)">S</text>
			<polyline points="310 297.3182, 310 204.7273" style="stroke: rgb(38%,52%,45%); stroke-linecap: round; stroke-width: 19.84090909090909; fill: None; fill-rule: evenodd;"/>
			<polyline points="310 297.3182, 310 204.7273" style="stroke: rgb(38%,52%,45%); stroke-linecap: butt; stroke-width: 1; fill: None; fill-rule: evenodd; stroke-dasharray: 4, 2;"/>
			<polyline points="310 204.7273, 310 105.5227" style="stroke: rgb(38%,52%,45%); stroke-linecap: round; stroke-width: 19.84090909090909; fill: None; fill-rule: evenodd;"/>
			<polyline points="310 204.7273, 310 105.5227" style="stroke: rgb(38%,52%,45%); stroke-linecap: butt; stroke-width: 1; fill: None; fill-rule: evenodd; stroke-dasharray: 4, 2;"/>
			<text x="314.0" y="302.3181818181818" style="font-family: AtlasBold; font-size: 7px;fill: rgb(38%,52%,45%); stroke:none;" transform="translate(0,604) scale(1,-1)">R</text>
			<circle cx="310.0" cy="413.0568181818182" r="9.920454545454545" style="stroke: rgb(7%,60%,54%); stroke-linecap: butt; stroke-width: 1.7; fill: rgb(7%,60%,54%); fill-rule: evenodd; stroke-dasharray: 3, 2;"/>
			<text x="322.92045454545456" y="417.0568181818182" style="font-family: AtlasBold; font-size: 7px;fill: rgb(7%,60%,54%); stroke:none;" transform="translate(0,834) scale(1,-1)">PORTAL</text>
			<circle cx="310.0" cy="105.52272727272727" r="3.8" style="stroke: rgb(13%,35%,52%); stroke-linecap: butt; stroke-width: 1.2; fill: rgb(100%,100%,100%); fill-rule: evenodd;"/>
			<text x="315.0" y="98.52272727272727" style="font-family: AtlasBold; font-size: 7px;fill: rgb(13%,35%,52%); stroke:none;" transform="translate(0,197) scale(1,-1)">K1</text>
			<circle cx="310.0" cy="333.6931818181818" r="3.8" style="stroke: rgb(13%,35%,52%); stroke-linecap: butt; stroke-width: 1.2; fill: rgb(100%,100%,100%); fill-rule: evenodd;"/>
			<text x="315.0" y="326.6931818181818" style="font-family: AtlasBold; font-size: 7px;fill: rgb(13%,35%,52%); stroke:none;" transform="translate(0,653) scale(1,-1)">K2</text>
			<circle cx="310.0" cy="376.6818181818182" r="2.1" style="stroke: rgb(60%,28%,26%); stroke-linecap: butt; stroke-width: 1.2; fill: rgb(100%,100%,100%); fill-rule: evenodd;"/>
			<text x="315.0" y="369.6818181818182" style="font-family: AtlasBold; font-size: 7px;fill: rgb(60%,28%,26%); stroke:none;" transform="translate(0,739) scale(1,-1)">K3</text>
			<circle cx="310.0" cy="413.0568181818182" r="3.8" style="stroke: rgb(13%,35%,52%); stroke-linecap: butt; stroke-width: 1.2; fill: rgb(100%,100%,100%); fill-rule: evenodd;"/>
			<text x="315.0" y="406.0568181818182" style="font-family: AtlasBold; font-size: 7px;fill: rgb(13%,35%,52%); stroke:none;" transform="translate(0,812) scale(1,-1)">K4</text>
			<circle cx="291.4818181818182" cy="131.97727272727272" r="2.1" style="stroke: rgb(13%,35%,52%); stroke-linecap: butt; stroke-width: 1.2; fill: rgb(100%,100%,100%); fill-rule: evenodd;"/>
			<text x="296.4818181818182" y="124.97727272727272" style="font-family: AtlasBold; font-size: 7px;fill: rgb(13%,35%,52%); stroke:none;" transform="translate(0,249) scale(1,-1)">K5</text>
			<circle cx="328.5181818181818" cy="211.3409090909091" r="2.1" style="stroke: rgb(13%,35%,52%); stroke-linecap: butt; stroke-width: 1.2; fill: rgb(100%,100%,100%); fill-rule: evenodd;"/>
			<text x="333.5181818181818" y="204.3409090909091" style="font-family: AtlasBold; font-size: 7px;fill: rgb(13%,35%,52%); stroke:none;" transform="translate(0,408) scale(1,-1)">K6</text>
			<circle cx="291.4818181818182" cy="310.5454545454545" r="2.1" style="stroke: rgb(13%,35%,52%); stroke-linecap: butt; stroke-width: 1.2; fill: rgb(100%,100%,100%); fill-rule: evenodd;"/>
			<text x="296.4818181818182" y="303.5454545454545" style="font-family: AtlasBold; font-size: 7px;fill: rgb(13%,35%,52%); stroke:none;" transform="translate(0,607) scale(1,-1)">K7</text>
			<circle cx="292.80454545454546" cy="313.8522727272727" r="3.8" style="stroke: rgb(13%,35%,52%); stroke-linecap: butt; stroke-width: 1.2; fill: rgb(100%,100%,100%); fill-rule: evenodd;"/>
			<text x="297.80454545454546" y="306.8522727272727" style="font-family: AtlasBold; font-size: 7px;fill: rgb(13%,35%,52%); stroke:none;" transform="translate(0,613) scale(1,-1)">K8</text>
			<circle cx="334.4704545454546" cy="211.3409090909091" r="3.8" style="stroke: rgb(13%,35%,52%); stroke-linecap: butt; stroke-width: 1.2; fill: rgb(100%,100%,100%); fill-rule: evenodd;"/>
			<text x="339.4704545454546" y="204.3409090909091" style="font-family: AtlasBold; font-size: 7px;fill: rgb(13%,35%,52%); stroke:none;" transform="translate(0,408) scale(1,-1)">K9</text>
			<circle cx="334.4704545454546" cy="204.72727272727272" r="3.8" style="stroke: rgb(13%,35%,52%); stroke-linecap: butt; stroke-width: 1.2; fill: rgb(100%,100%,100%); fill-rule: evenodd;"/>
			<text x="339.4704545454546" y="197.72727272727272" style="font-family: AtlasBold; font-size: 7px;fill: rgb(13%,35%,52%); stroke:none;" transform="translate(0,395) scale(1,-1)">K10</text>
			<circle cx="282.2227272727273" cy="363.45454545454544" r="3.8" style="stroke: rgb(13%,35%,52%); stroke-linecap: butt; stroke-width: 1.2; fill: rgb(100%,100%,100%); fill-rule: evenodd;"/>
			<text x="287.2227272727273" y="356.45454545454544" style="font-family: AtlasBold; font-size: 7px;fill: rgb(13%,35%,52%); stroke:none;" transform="translate(0,712) scale(1,-1)">K11</text>
			<circle cx="337.7772727272727" cy="363.45454545454544" r="3.8" style="stroke: rgb(13%,35%,52%); stroke-linecap: butt; stroke-width: 1.2; fill: rgb(100%,100%,100%); fill-rule: evenodd;"/>
			<text x="342.7772727272727" y="356.45454545454544" style="font-family: AtlasBold; font-size: 7px;fill: rgb(13%,35%,52%); stroke:none;" transform="translate(0,712) scale(1,-1)">K12</text>
			<polygon points="334.4705 217.3409, 340.4705 211.3409, 334.4705 205.3409, 328.4705 211.3409" style="stroke: rgb(50%,35%,15%); stroke-linecap: butt; stroke-width: 1; fill: rgb(79%,56%,26%); fill-rule: evenodd;"/>
			<text x="341.4704545454546" y="218.3409090909091" style="font-family: AtlasBold; font-size: 9px;fill: rgb(43%,26%,6%); stroke:none;" transform="translate(0,436) scale(1,-1)">L1</text>
			<polygon points="291.4818 316.5455, 297.4818 310.5455, 291.4818 304.5455, 285.4818 310.5455" style="stroke: rgb(50%,35%,15%); stroke-linecap: butt; stroke-width: 1; fill: rgb(79%,56%,26%); fill-rule: evenodd;"/>
			<text x="298.4818181818182" y="317.5454545454545" style="font-family: AtlasBold; font-size: 9px;fill: rgb(43%,26%,6%); stroke:none;" transform="translate(0,635) scale(1,-1)">L2</text>
			<polygon points="310 467.3364, 316 461.3364, 310 455.3364, 304 461.3364" style="stroke: rgb(50%,35%,15%); stroke-linecap: butt; stroke-width: 1; fill: rgb(79%,56%,26%); fill-rule: evenodd;"/>
			<text x="317.0" y="468.3363636363636" style="font-family: AtlasBold; font-size: 9px;fill: rgb(43%,26%,6%); stroke:none;" transform="translate(0,936) scale(1,-1)">L3</text>
			<text x="586.71044921875" y="643" style="font-family: Atlas; font-size: 9px;fill: rgb(14%,20%,18%); stroke:none;" transform="translate(0,1286) scale(1,-1)">+Z</text>
			<path d="M 594,622 L 594,638 Z" style="stroke: rgb(14%,20%,18%); stroke-linecap: butt; stroke-width: 1;"/>
			<polygon points="594 640, 591 634, 597 634" style="stroke: none; stroke-linecap: butt; stroke-width: 1; fill: rgb(14%,20%,18%); fill-rule: evenodd;"/>
			<path d="M 224.022727,18 L 290.159091,18 Z" style="stroke: rgb(14%,20%,18%); stroke-linecap: butt; stroke-width: 2;"/>
			<text x="229.25887784090912" y="5" style="font-family: Atlas; font-size: 8px;fill: rgb(14%,20%,18%); stroke:none;" transform="translate(0,10) scale(1,-1)">10m | grade 2m</text>
			<text x="492.2158203125" y="17" style="font-family: AtlasBold; font-size: 9px;fill: rgb(14%,20%,18%); stroke:none;" transform="translate(0,34) scale(1,-1)">COMPOSIÇÃO PROPOSTA</text>
		</g>
	</g>
</svg>