<svg width="620" height="670" preserveAspectRatio="xMinYMin meet" viewBox="0 0 620 670" xmlns="http://www.w3.org/2000/svg" version="1.0" fill-rule="evenodd" xmlns:xlink="http://www.w3.org/1999/xlink">
	<title>...</title>
	<desc>...</desc>
	<clipPath id="clip">
		<rect x="0" y="0" width="620" height="670"/>
	</clipPath>
	<g id="group" transform="scale(1,-1) translate(0,-670)" style="clip-path: url(#clip)">
		<g transform="">
			<rect x="0" y="0" width="620" height="670" style="stroke: none; stroke-linecap: butt; stroke-width: 1; fill: rgb(98%,97%,94%); fill-rule: evenodd;"/>
			<path d="M 68.885714,46 L 68.885714,628 Z" style="stroke: rgb(86%,87%,83%); stroke-linecap: butt; stroke-width: 0.35;"/>
			<path d="M 85.514286,46 L 85.514286,628 Z" style="stroke: rgb(86%,87%,83%); stroke-linecap: butt; stroke-width: 0.35;"/>
			<path d="M 102.142857,46 L 102.142857,628 Z" style="stroke: rgb(86%,87%,83%); stroke-linecap: butt; stroke-width: 0.35;"/>
			<path d="M 118.771429,46 L 118.771429,628 Z" style="stroke: rgb(86%,87%,83%); stroke-linecap: butt; stroke-width: 0.35;"/>
			<path d="M 135.4,46 L 135.4,628 Z" style="stroke: rgb(86%,87%,83%); stroke-linecap: butt; stroke-width: 0.35;"/>
			<path d="M 152.028571,46 L 152.028571,628 Z" style="stroke: rgb(86%,87%,83%); stroke-linecap: butt; stroke-width: 0.35;"/>
			<path d="M 168.657143,46 L 168.657143,628 Z" style="stroke: rgb(86%,87%,83%); stroke-linecap: butt; stroke-width: 0.35;"/>
			<path d="M 185.285714,46 L 185.285714,628 Z" style="stroke: rgb(86%,87%,83%); stroke-linecap: butt; stroke-width: 0.35;"/>
			<path d="M 201.914286,46 L 201.914286,628 Z" style="stroke: rgb(86%,87%,83%); stroke-linecap: butt; stroke-width: 0.35;"/>
			<path d="M 218.542857,46 L 218.542857,628 Z" style="stroke: rgb(86%,87%,83%); stroke-linecap: butt; stroke-width: 0.35;"/>
			<path d="M 235.171429,46 L 235.171429,628 Z" style="stroke: rgb(86%,87%,83%); stroke-linecap: butt; stroke-width: 0.35;"/>
			<path d="M 251.8,46 L 251.8,628 Z" style="stroke: rgb(86%,87%,83%); stroke-linecap: butt; stroke-width: 0.35;"/>
			<path d="M 268.428571,46 L 268.428571,628 Z" style="stroke: rgb(86%,87%,83%); stroke-linecap: butt; stroke-width: 0.35;"/>
			<path d="M 285.057143,46 L 285.057143,628 Z" style="stroke: rgb(86%,87%,83%); stroke-linecap: butt; stroke-width: 0.35;"/>
			<path d="M 301.685714,46 L 301.685714,628 Z" style="stroke: rgb(86%,87%,83%); stroke-linecap: butt; stroke-width: 0.35;"/>
			<path d="M 318.314286,46 L 318.314286,628 Z" style="stroke: rgb(86%,87%,83%); stroke-linecap: butt; stroke-width: 0.35;"/>
			<path d="M 334.942857,46 L 334.942857,628 Z" style="stroke: rgb(86%,87%,83%); stroke-linecap: butt; stroke-width: 0.35;"/>
			<path d="M 351.571429,46 L 351.571429,628 Z" style="stroke: rgb(86%,87%,83%); stroke-linecap: butt; stroke-width: 0.35;"/>
			<path d="M 368.2,46 L 368.2,628 Z" style="stroke: rgb(86%,87%,83%); stroke-linecap: butt; stroke-width: 0.35;"/>
			<path d="M 384.828571,46 L 384.828571,628 Z" style="stroke: rgb(86%,87%,83%); stroke-linecap: butt; stroke-width: 0.35;"/>
			<path d="M 401.457143,46 L 401.457143,628 Z" style="stroke: rgb(86%,87%,83%); stroke-linecap: butt; stroke-width: 0.35;"/>
			<path d="M 418.085714,46 L 418.085714,628 Z" style="stroke: rgb(86%,87%,83%); stroke-linecap: butt; stroke-width: 0.35;"/>
			<path d="M 434.714286,46 L 434.714286,628 Z" style="stroke: rgb(86%,87%,83%); stroke-linecap: butt; stroke-width: 0.35;"/>
			<path d="M 451.342857,46 L 451.342857,628 Z" style="stroke: rgb(86%,87%,83%); stroke-linecap: butt; stroke-width: 0.35;"/>
			<path d="M 467.971429,46 L 467.971429,628 Z" style="stroke: rgb(86%,87%,83%); stroke-linecap: butt; stroke-width: 0.35;"/>
			<path d="M 484.6,46 L 484.6,628 Z" style="stroke: rgb(86%,87%,83%); stroke-linecap: butt; stroke-width: 0.35;"/>
			<path d="M 501.228571,46 L 501.228571,628 Z" style="stroke: rgb(86%,87%,83%); stroke-linecap: butt; stroke-width: 0.35;"/>
			<path d="M 517.857143,46 L 517.857143,628 Z" style="stroke: rgb(86%,87%,83%); stroke-linecap: butt; stroke-width: 0.35;"/>
			<path d="M 534.485714,46 L 534.485714,628 Z" style="stroke: rgb(86%,87%,83%); stroke-linecap: butt; stroke-width: 0.35;"/>
			<path d="M 551.114286,46 L 551.114286,628 Z" style="stroke: rgb(86%,87%,83%); stroke-linecap: butt; stroke-width: 0.35;"/>
			<path d="M 68.885714,46 L 551.114286,46 Z" style="stroke: rgb(86%,87%,83%); stroke-linecap: butt; stroke-width: 0.35;"/>
			<path d="M 68.885714,62.628571 L 551.114286,62.628571 Z" style="stroke: rgb(86%,87%,83%); stroke-linecap: butt; stroke-width: 0.35;"/>
			<path d="M 68.885714,79.257143 L 551.114286,79.257143 Z" style="stroke: rgb(86%,87%,83%); stroke-linecap: butt; stroke-width: 0.35;"/>
			<path d="M 68.885714,95.885714 L 551.114286,95.885714 Z" style="stroke: rgb(86%,87%,83%); stroke-linecap: butt; stroke-width: 0.35;"/>
			<path d="M 68.885714,112.514286 L 551.114286,112.514286 Z" style="stroke: rgb(86%,87%,83%); stroke-linecap: butt; stroke-width: 0.35;"/>
			<path d="M 68.885714,129.142857 L 551.114286,129.142857 Z" style="stroke: rgb(86%,87%,83%); stroke-linecap: butt; stroke-width: 0.35;"/>
			<path d="M 68.885714,145.771429 L 551.114286,145.771429 Z" style="stroke: rgb(86%,87%,83%); stroke-linecap: butt; stroke-width: 0.35;"/>
			<path d="M 68.885714,162.4 L 551.114286,162.4 Z" style="stroke: rgb(86%,87%,83%); stroke-linecap: butt; stroke-width: 0.35;"/>
			<path d="M 68.885714,179.028571 L 551.114286,179.028571 Z" style="stroke: rgb(86%,87%,83%); stroke-linecap: butt; stroke-width: 0.35;"/>
			<path d="M 68.885714,195.657143 L 551.114286,195.657143 Z" style="stroke: rgb(86%,87%,83%); stroke-linecap: butt; stroke-width: 0.35;"/>
			<path d="M 68.885714,212.285714 L 551.114286,212.285714 Z" style="stroke: rgb(86%,87%,83%); stroke-linecap: butt; stroke-width: 0.35;"/>
			<path d="M 68.885714,228.914286 L 551.114286,228.914286 Z" style="stroke: rgb(86%,87%,83%); stroke-linecap: butt; stroke-width: 0.35;"/>
			<path d="M 68.885714,245.542857 L 551.114286,245.542857 Z" style="stroke: rgb(86%,87%,83%); stroke-linecap: butt; stroke-width: 0.35;"/>
			<path d="M 68.885714,262.171429 L 551.114286,262.171429 Z" style="stroke: rgb(86%,87%,83%); stroke-linecap: butt; stroke-width: 0.35;"/>
			<path d="M 68.885714,278.8 L 551.114286,278.8 Z" style="stroke: rgb(86%,87%,83%); stroke-linecap: butt; stroke-width: 0.35;"/>
			<path d="M 68.885714,295.428571 L 551.114286,295.428571 Z" style="stroke: rgb(86%,87%,83%); stroke-linecap: butt; stroke-width: 0.35;"/>
			<path d="M 68.885714,312.057143 L 551.114286,312.057143 Z" style="stroke: rgb(86%,87%,83%); stroke-linecap: butt; stroke-width: 0.35;"/>
			<path d="M 68.885714,328.685714 L 551.114286,328.685714 Z" style="stroke: rgb(86%,87%,83%); stroke-linecap: butt; stroke-width: 0.35;"/>
			<path d="M 68.885714,345.314286 L 551.114286,345.314286 Z" style="stroke: rgb(86%,87%,83%); stroke-linecap: butt; stroke-width: 0.35;"/>
			<path d="M 68.885714,361.942857 L 551.114286,361.942857 Z" style="stroke: rgb(86%,87%,83%); stroke-linecap: butt; stroke-width: 0.35;"/>
			<path d="M 68.885714,378.571429 L 551.114286,378.571429 Z" style="stroke: rgb(86%,87%,83%); stroke-linecap: butt; stroke-width: 0.35;"/>
			<path d="M 68.885714,395.2 L 551.114286,395.2 Z" style="stroke: rgb(86%,87%,83%); stroke-linecap: butt; stroke-width: 0.35;"/>
			<path d="M 68.885714,411.828571 L 551.114286,411.828571 Z" style="stroke: rgb(86%,87%,83%); stroke-linecap: butt; stroke-width: 0.35;"/>
			<path d="M 68.885714,428.457143 L 551.114286,428.457143 Z" style="stroke: rgb(86%,87%,83%); stroke-linecap: butt; stroke-width: 0.35;"/>
			<path d="M 68.885714,445.085714 L 551.114286,445.085714 Z" style="stroke: rgb(86%,87%,83%); stroke-linecap: butt; stroke-width: 0.35;"/>
			<path d="M 68.885714,461.714286 L 551.114286,461.714286 Z" style="stroke: rgb(86%,87%,83%); stroke-linecap: butt; stroke-width: 0.35;"/>
			<path d="M 68.885714,478.342857 L 551.114286,478.342857 Z" style="stroke: rgb(86%,87%,83%); stroke-linecap: butt; stroke-width: 0.35;"/>
			<path d="M 68.885714,494.971429 L 551.114286,494.971429 Z" style="stroke: rgb(86%,87%,83%); stroke-linecap: butt; stroke-width: 0.35;"/>
			<path d="M 68.885714,511.6 L 551.114286,511.6 Z" style="stroke: rgb(86%,87%,83%); stroke-linecap: butt; stroke-width: 0.35;"/>
			<path d="M 68.885714,528.228571 L 551.114286,528.228571 Z" style="stroke: rgb(86%,87%,83%); stroke-linecap: butt; stroke-width: 0.35;"/>
			<path d="M 68.885714,544.857143 L 551.114286,544.857143 Z" style="stroke: rgb(86%,87%,83%); stroke-linecap: butt; stroke-width: 0.35;"/>
			<path d="M 68.885714,561.485714 L 551.114286,561.485714 Z" style="stroke: rgb(86%,87%,83%); stroke-linecap: butt; stroke-width: 0.35;"/>
			<path d="M 68.885714,578.114286 L 551.114286,578.114286 Z" style="stroke: rgb(86%,87%,83%); stroke-linecap: butt; stroke-width: 0.35;"/>
			<path d="M 68.885714,594.742857 L 551.114286,594.742857 Z" style="stroke: rgb(86%,87%,83%); stroke-linecap: butt; stroke-width: 0.35;"/>
			<path d="M 68.885714,611.371429 L 551.114286,611.371429 Z" style="stroke: rgb(86%,87%,83%); stroke-linecap: butt; stroke-width: 0.35;"/>
			<path d="M 68.885714,628 L 551.114286,628 Z" style="stroke: rgb(86%,87%,83%); stroke-linecap: butt; stroke-width: 0.35;"/>
			<rect x="68.88571428571427" y="46.0" width="482.2285714285715" height="582.0" style="stroke: rgb(66%,71%,67%); stroke-linecap: butt; stroke-width: 0.8; fill: none; fill-rule: evenodd;"/>
			<text x="113.59833286830356" y="32.0" style="font-family: Atlas; font-size: 7px;fill: rgb(14%,20%,18%); stroke:none;" transform="translate(0,64) scale(1,-1)">-24</text>
			<text x="180.11261858258928" y="32.0" style="font-family: Atlas; font-size: 7px;fill: rgb(14%,20%,18%); stroke:none;" transform="translate(0,64) scale(1,-1)">-16</text>
			<text x="248.513623046875" y="32.0" style="font-family: Atlas; font-size: 7px;fill: rgb(14%,20%,18%); stroke:none;" transform="translate(0,64) scale(1,-1)">-8</text>
			<text x="316.4275669642857" y="32.0" style="font-family: Atlas; font-size: 7px;fill: rgb(14%,20%,18%); stroke:none;" transform="translate(0,64) scale(1,-1)">0</text>
			<text x="382.9418526785714" y="32.0" style="font-family: Atlas; font-size: 7px;fill: rgb(14%,20%,18%); stroke:none;" transform="translate(0,64) scale(1,-1)">8</text>
			<text x="447.56941964285716" y="32.0" style="font-family: Atlas; font-size: 7px;fill: rgb(14%,20%,18%); stroke:none;" transform="translate(0,64) scale(1,-1)">16</text>
			<text x="514.0837053571429" y="32.0" style="font-family: Atlas; font-size: 7px;fill: rgb(14%,20%,18%); stroke:none;" transform="translate(0,64) scale(1,-1)">24</text>
			<text x="51.53952287946427" y="77.25714285714287" style="font-family: Atlas; font-size: 7px;fill: rgb(14%,20%,18%); stroke:none;" transform="translate(0,154) scale(1,-1)">-16</text>
			<text x="55.31296037946427" y="143.77142857142857" style="font-family: Atlas; font-size: 7px;fill: rgb(14%,20%,18%); stroke:none;" transform="translate(0,287) scale(1,-1)">-8</text>
			<text x="58.11227678571427" y="210.2857142857143" style="font-family: Atlas; font-size: 7px;fill: rgb(14%,20%,18%); stroke:none;" transform="translate(0,420) scale(1,-1)">0</text>
			<text x="58.11227678571427" y="276.8" style="font-family: Atlas; font-size: 7px;fill: rgb(14%,20%,18%); stroke:none;" transform="translate(0,553) scale(1,-1)">8</text>
			<text x="54.33883928571427" y="343.31428571428575" style="font-family: Atlas; font-size: 7px;fill: rgb(14%,20%,18%); stroke:none;" transform="translate(0,686) scale(1,-1)">16</text>
			<text x="54.33883928571427" y="409.8285714285715" style="font-family: Atlas; font-size: 7px;fill: rgb(14%,20%,18%); stroke:none;" transform="translate(0,819) scale(1,-1)">24</text>
			<text x="54.33883928571427" y="476.34285714285716" style="font-family: Atlas; font-size: 7px;fill: rgb(14%,20%,18%); stroke:none;" transform="translate(0,952) scale(1,-1)">32</text>
			<text x="54.33883928571427" y="542.8571428571429" style="font-family: Atlas; font-size: 7px;fill: rgb(14%,20%,18%); stroke:none;" transform="translate(0,1085) scale(1,-1)">40</text>
			<text x="54.33883928571427" y="609.3714285714286" style="font-family: Atlas; font-size: 7px;fill: rgb(14%,20%,18%); stroke:none;" transform="translate(0,1218) scale(1,-1)">48</text>
			<rect x="276.74285714285713" y="79.25714285714287" width="83.14285714285717" height="58.19999999999999" style="stroke: rgb(49%,55%,51%); stroke-linecap: butt; stroke-width: 0.65; fill: rgb(81%,84%,80%); fill-rule: evenodd;"/>
			<text x="313.5857700892857" y="110.35714285714286" style="font-family: AtlasBold; font-size: 8px;fill: rgb(14%,20%,18%); stroke:none;" transform="translate(0,220) scale(1,-1)">Z1</text>
			<rect x="218.54285714285714" y="195.65714285714287" width="66.51428571428573" height="49.88571428571427" style="stroke: rgb(49%,55%,51%); stroke-linecap: butt; stroke-width: 0.65; fill: rgb(65%,71%,74%); fill-rule: evenodd;"/>
			<text x="247.071484375" y="222.60000000000002" style="font-family: AtlasBold; font-size: 8px;fill: rgb(14%,20%,18%); stroke:none;" transform="translate(0,445) scale(1,-1)">Z2</text>
			<rect x="268.42857142857144" y="212.2857142857143" width="108.08571428571429" height="108.08571428571432" style="stroke: rgb(49%,55%,51%); stroke-linecap: butt; stroke-width: 0.65; fill: rgb(83%,89%,79%); fill-rule: evenodd;"/>
			<text x="317.7429129464286" y="268.3285714285714" style="font-family: AtlasBold; font-size: 8px;fill: rgb(14%,20%,18%); stroke:none;" transform="translate(0,536) scale(1,-1)">Z3</text>
			<rect x="118.77142857142856" y="112.51428571428572" width="66.51428571428572" height="365.8285714285715" style="stroke: rgb(49%,55%,51%); stroke-linecap: butt; stroke-width: 0.65; fill: rgb(81%,84%,80%); fill-rule: evenodd;"/>
			<text x="147.3000558035714" y="297.42857142857144" style="font-family: AtlasBold; font-size: 8px;fill: rgb(14%,20%,18%); stroke:none;" transform="translate(0,594) scale(1,-1)">Z4</text>
			<rect x="443.02857142857147" y="129.14285714285717" width="74.82857142857142" height="357.51428571428573" style="stroke: rgb(49%,55%,51%); stroke-linecap: butt; stroke-width: 0.65; fill: rgb(81%,84%,80%); fill-rule: evenodd;"/>
			<text x="475.7143415178572" y="309.90000000000003" style="font-family: AtlasBold; font-size: 8px;fill: rgb(14%,20%,18%); stroke:none;" transform="translate(0,619) scale(1,-1)">Z5</text>
			<rect x="285.0571428571428" y="337.0" width="66.51428571428573" height="133.02857142857147" style="stroke: rgb(49%,55%,51%); stroke-linecap: butt; stroke-width: 0.65; fill: rgb(83%,89%,79%); fill-rule: evenodd;"/>
			<text x="313.5857700892857" y="405.51428571428573" style="font-family: AtlasBold; font-size: 8px;fill: rgb(14%,20%,18%); stroke:none;" transform="translate(0,811) scale(1,-1)">Z6</text>
			<rect x="77.19999999999999" y="519.9142857142858" width="465.59999999999997" height="99.7714285714286" style="stroke: rgb(49%,55%,51%); stroke-linecap: butt; stroke-width: 0.65; fill: rgb(78%,78%,72%); fill-rule: evenodd;"/>
			<text x="305.271484375" y="571.8000000000001" style="font-family: AtlasBold; font-size: 8px;fill: rgb(14%,20%,18%); stroke:none;" transform="translate(0,1143) scale(1,-1)">Z7</text>
			<rect x="218.54285714285714" y="195.65714285714287" width="49.8857142857143" height="41.571428571428584" style="stroke: rgb(20%,30%,35%); stroke-linecap: butt; stroke-width: 1.5; fill: rgb(38%,47%,52%); fill-rule: evenodd; stroke-dasharray: 4, 2;"/>
			<text x="232.3471644810268" y="209.44285714285715" style="font-family: Atlas; font-size: 6.5px;fill: rgb(14%,24%,28%); stroke:none;" transform="translate(0,418) scale(1,-1)">base Z2</text>
			<polyline points="318.3143 95.88571, 318.3143 120.8286" style="stroke: rgb(44%,35%,19%); stroke-linecap: round; stroke-width: 29.1; fill: None; fill-rule: evenodd;"/>
			<polyline points="318.3143 95.88571, 318.3143 120.8286" style="stroke: rgb(44%,35%,19%); stroke-linecap: butt; stroke-width: 1; fill: None; fill-rule: evenodd;"/>
			<polyline points="318.3143 120.8286, 317.0671 170.7143" style="stroke: rgb(44%,35%,19%); stroke-linecap: round; stroke-width: 29.1; fill: None; fill-rule: evenodd;"/>
			<polyline points="318.3143 120.8286, 317.0671 170.7143" style="stroke: rgb(44%,35%,19%); stroke-linecap: butt; stroke-width: 1; fill: None; fill-rule: evenodd;"/>
			<polyline points="317.0671 170.7143, 307.9214 210.6229" style="stroke: rgb(44%,35%,19%); stroke-linecap: round; stroke-width: 29.1; fill: None; fill-rule: evenodd;"/>
			<polyline points="317.0671 170.7143, 307.9214 210.6229" style="stroke: rgb(44%,35%,19%); stroke-linecap: butt; stroke-width: 1; fill: None; fill-rule: evenodd;"/>
			<polyline points="307.9214 210.6229, 314.5729 237.2286" style="stroke: rgb(44%,35%,19%); stroke-linecap: round; stroke-width: 29.1; fill: None; fill-rule: evenodd;"/>
			<polyline points="307.9214 210.6229, 314.5729 237.2286" style="stroke: rgb(44%,35%,19%); stroke-linecap: butt; stroke-width: 1; fill: None; fill-rule: evenodd;"/>
			<polyline points="314.5729 237.2286, 318.3143 270.4857" style="stroke: rgb(44%,35%,19%); stroke-linecap: round; stroke-width: 29.1; fill: None; fill-rule: evenodd;"/>
			<polyline points="314.5729 237.2286, 318.3143 270.4857" style="stroke: rgb(44%,35%,19%); stroke-linecap: butt; stroke-width: 1; fill: None; fill-rule: evenodd;"/>
			<polyline points="318.3143 270.4857, 318.3143 328.6857" style="stroke: rgb(44%,35%,19%); stroke-linecap: round; stroke-width: 29.1; fill: None; fill-rule: evenodd;"/>
			<polyline points="318.3143 270.4857, 318.3143 328.6857" style="stroke: rgb(44%,35%,19%); stroke-linecap: butt; stroke-width: 1; fill: None; fill-rule: evenodd;"/>
			<polyline points="318.3143 328.6857, 318.3143 411.8286" style="stroke: rgb(44%,35%,19%); stroke-linecap: round; stroke-width: 29.1; fill: None; fill-rule: evenodd;"/>
			<polyline points="318.3143 328.6857, 318.3143 411.8286" style="stroke: rgb(44%,35%,19%); stroke-linecap: butt; stroke-width: 1; fill: None; fill-rule: evenodd;"/>
			<polyline points="318.3143 411.8286, 318.3143 478.3429" style="stroke: rgb(44%,35%,19%); stroke-linecap: round; stroke-width: 29.1; fill: None; fill-rule: evenodd;"/>
			<polyline points="318.3143 411.8286, 318.3143 478.3429" style="stroke: rgb(44%,35%,19%); stroke-linecap: butt; stroke-width: 1; fill: None; fill-rule: evenodd;"/>
			<text x="311.9214285714286" y="215.62285714285716" style="font-family: AtlasBold; font-size: 7px;fill: rgb(44%,35%,19%); stroke:none;" transform="translate(0,431) scale(1,-1)">A1</text>
			<polyline points="318.3143 253.8571, 301.6857 262.1714" style="stroke: rgb(7%,41%,47%); stroke-linecap: round; stroke-width: 23.28; fill: None; fill-rule: evenodd;"/>
			<polyline points="318.3143 253.8571, 301.6857 262.1714" style="stroke: rgb(7%,41%,47%); stroke-linecap: butt; stroke-width: 1; fill: None; fill-rule: evenodd;"/>
			<polyline points="301.6857 262.1714, 285.0571 270.4857" style="stroke: rgb(7%,41%,47%); stroke-linecap: round; stroke-width: 23.28; fill: None; fill-rule: evenodd;"/>
			<polyline points="301.6857 262.1714, 285.0571 270.4857" style="stroke: rgb(7%,41%,47%); stroke-linecap: butt; stroke-width: 1; fill: None; fill-rule: evenodd;"/>
			<text x="322.3142857142857" y="258.8571428571429" style="font-family: AtlasBold; font-size: 7px;fill: rgb(7%,41%,47%); stroke:none;" transform="translate(0,517) scale(1,-1)">A2</text>
			<polyline points="318.3143 300.4171, 334.9429 303.7429" style="stroke: rgb(7%,41%,47%); stroke-linecap: round; stroke-width: 23.28; fill: None; fill-rule: evenodd;"/>
			<polyline points="318.3143 300.4171, 334.9429 303.7429" style="stroke: rgb(7%,41%,47%); stroke-linecap: butt; stroke-width: 1; fill: None; fill-rule: evenodd;"/>
			<polyline points="334.9429 303.7429, 351.5714 278.8" style="stroke: rgb(7%,41%,47%); stroke-linecap: round; stroke-width: 23.28; fill: None; fill-rule: evenodd;"/>
			<polyline points="334.9429 303.7429, 351.5714 278.8" style="stroke: rgb(7%,41%,47%); stroke-linecap: butt; stroke-width: 1; fill: None; fill-rule: evenodd;"/>
			<text x="322.3142857142857" y="305.4171428571429" style="font-family: AtlasBold; font-size: 7px;fill: rgb(7%,41%,47%); stroke:none;" transform="translate(0,610) scale(1,-1)">A3</text>
			<polyline points="307.9214 210.6229, 293.3714 212.2857" style="stroke: rgb(7%,41%,47%); stroke-linecap: round; stroke-width: 23.28; fill: None; fill-rule: evenodd;"/>
			<polyline points="307.9214 210.6229, 293.3714 212.2857" style="stroke: rgb(7%,41%,47%); stroke-linecap: butt; stroke-width: 1; fill: None; fill-rule: evenodd;"/>
			<text x="311.9214285714286" y="215.62285714285716" style="font-family: AtlasBold; font-size: 7px;fill: rgb(7%,41%,47%); stroke:none;" transform="translate(0,431) scale(1,-1)">A4</text>
			<circle cx="318.3142857142857" cy="95.88571428571429" r="3.8" style="stroke: rgb(13%,35%,52%); stroke-linecap: butt; stroke-width: 1.2; fill: rgb(100%,100%,100%); fill-rule: evenodd;"/>
			<text x="323.3142857142857" y="88.88571428571429" style="font-family: AtlasBold; font-size: 7px;fill: rgb(13%,35%,52%); stroke:none;" transform="translate(0,177) scale(1,-1)">K1</text>
			<circle cx="318.3142857142857" cy="478.34285714285716" r="3.8" style="stroke: rgb(13%,35%,52%); stroke-linecap: butt; stroke-width: 1.2; fill: rgb(100%,100%,100%); fill-rule: evenodd;"/>
			<text x="323.3142857142857" y="471.34285714285716" style="font-family: AtlasBold; font-size: 7px;fill: rgb(13%,35%,52%); stroke:none;" transform="translate(0,942) scale(1,-1)">K2</text>
			<circle cx="293.37142857142857" cy="212.2857142857143" r="3.8" style="stroke: rgb(13%,35%,52%); stroke-linecap: butt; stroke-width: 1.2; fill: rgb(100%,100%,100%); fill-rule: evenodd;"/>
			<text x="298.37142857142857" y="205.2857142857143" style="font-family: AtlasBold; font-size: 7px;fill: rgb(13%,35%,52%); stroke:none;" transform="translate(0,410) scale(1,-1)">K3</text>
			<circle cx="351.57142857142856" cy="278.8" r="3.8" style="stroke: rgb(13%,35%,52%); stroke-linecap: butt; stroke-width: 1.2; fill: rgb(100%,100%,100%); fill-rule: evenodd;"/>
			<text x="356.57142857142856" y="271.8" style="font-family: AtlasBold; font-size: 7px;fill: rgb(13%,35%,52%); stroke:none;" transform="translate(0,543) scale(1,-1)">K4</text>
			<circle cx="293.37142857142857" cy="212.2857142857143" r="2.1" style="stroke: rgb(13%,35%,52%); stroke-linecap: butt; stroke-width: 1.2; fill: rgb(100%,100%,100%); fill-rule: evenodd;"/>
			<text x="298.37142857142857" y="205.2857142857143" style="font-family: AtlasBold; font-size: 7px;fill: rgb(13%,35%,52%); stroke:none;" transform="translate(0,410) scale(1,-1)">K5</text>
			<circle cx="318.3142857142857" cy="228.91428571428574" r="2.1" style="stroke: rgb(13%,35%,52%); stroke-linecap: butt; stroke-width: 1.2; fill: rgb(100%,100%,100%); fill-rule: evenodd;"/>
			<text x="323.3142857142857" y="221.91428571428574" style="font-family: AtlasBold; font-size: 7px;fill: rgb(13%,35%,52%); stroke:none;" transform="translate(0,443) scale(1,-1)">K6</text>
			<circle cx="285.0571428571428" cy="270.48571428571427" r="2.1" style="stroke: rgb(13%,35%,52%); stroke-linecap: butt; stroke-width: 1.2; fill: rgb(100%,100%,100%); fill-rule: evenodd;"/>
			<text x="290.0571428571428" y="263.48571428571427" style="font-family: AtlasBold; font-size: 7px;fill: rgb(13%,35%,52%); stroke:none;" transform="translate(0,526) scale(1,-1)">K7</text>
			<circle cx="334.9428571428572" cy="303.7428571428572" r="2.1" style="stroke: rgb(13%,35%,52%); stroke-linecap: butt; stroke-width: 1.2; fill: rgb(100%,100%,100%); fill-rule: evenodd;"/>
			<text x="339.9428571428572" y="296.7428571428572" style="font-family: AtlasBold; font-size: 7px;fill: rgb(13%,35%,52%); stroke:none;" transform="translate(0,593) scale(1,-1)">K8</text>
			<circle cx="351.57142857142856" cy="278.8" r="2.1" style="stroke: rgb(13%,35%,52%); stroke-linecap: butt; stroke-width: 1.2; fill: rgb(100%,100%,100%); fill-rule: evenodd;"/>
			<text x="356.57142857142856" y="271.8" style="font-family: AtlasBold; font-size: 7px;fill: rgb(13%,35%,52%); stroke:none;" transform="translate(0,543) scale(1,-1)">K9</text>
			<polygon points="318.3143 114.3571, 324.3143 108.3571, 318.3143 102.3571, 312.3143 108.3571" style="stroke: rgb(50%,35%,15%); stroke-linecap: butt; stroke-width: 1; fill: rgb(79%,56%,26%); fill-rule: evenodd;"/>
			<text x="325.3142857142857" y="115.35714285714286" style="font-family: AtlasBold; font-size: 9px;fill: rgb(43%,26%,6%); stroke:none;" transform="translate(0,230) scale(1,-1)">L1</text>
			<polygon points="243.4857 226.6, 249.4857 220.6, 243.4857 214.6, 237.4857 220.6" style="stroke: rgb(50%,35%,15%); stroke-linecap: butt; stroke-width: 1; fill: rgb(79%,56%,26%); fill-rule: evenodd;"/>
			<text x="250.4857142857143" y="227.60000000000002" style="font-family: AtlasBold; font-size: 9px;fill: rgb(43%,26%,6%); stroke:none;" transform="translate(0,455) scale(1,-1)">L2</text>
			<polygon points="351.5714 284.8, 357.5714 278.8, 351.5714 272.8, 345.5714 278.8" style="stroke: rgb(50%,35%,15%); stroke-linecap: butt; stroke-width: 1; fill: rgb(79%,56%,26%); fill-rule: evenodd;"/>
			<text x="358.57142857142856" y="285.8" style="font-family: AtlasBold; font-size: 9px;fill: rgb(43%,26%,6%); stroke:none;" transform="translate(0,571) scale(1,-1)">L3</text>
			<text x="586.71044921875" y="643" style="font-family: Atlas; font-size: 9px;fill: rgb(14%,20%,18%); stroke:none;" transform="translate(0,1286) scale(1,-1)">+Z</text>
			<path d="M 594,622 L 594,638 Z" style="stroke: rgb(14%,20%,18%); stroke-linecap: butt; stroke-width: 1;"/>
			<polygon points="594 640, 591 634, 597 634" style="stroke: none; stroke-linecap: butt; stroke-width: 1; fill: rgb(14%,20%,18%); fill-rule: evenodd;"/>
			<path d="M 68.885714,18 L 152.028571,18 Z" style="stroke: rgb(14%,20%,18%); stroke-linecap: butt; stroke-width: 2;"/>
			<text x="82.62511160714286" y="5" style="font-family: Atlas; font-size: 8px;fill: rgb(14%,20%,18%); stroke:none;" transform="translate(0,10) scale(1,-1)">10m | grade 2m</text>
			<text x="492.2158203125" y="17" style="font-family: AtlasBold; font-size: 9px;fill: rgb(14%,20%,18%); stroke:none;" transform="translate(0,34) scale(1,-1)">COMPOSIÇÃO PROPOSTA</text>
		</g>
	</g>
</svg>