<svg width="620" height="670" preserveAspectRatio="xMinYMin meet" viewBox="0 0 620 670" xmlns="http://www.w3.org/2000/svg" version="1.0" fill-rule="evenodd" xmlns:xlink="http://www.w3.org/1999/xlink">
	<title>...</title>
	<desc>...</desc>
	<clipPath id="clip">
		<rect x="0" y="0" width="620" height="670"/>
	</clipPath>
	<g id="group" transform="scale(1,-1) translate(0,-670)" style="clip-path: url(#clip)">
		<g transform="">
			<rect x="0" y="0" width="620" height="670" style="stroke: none; stroke-linecap: butt; stroke-width: 1; fill: rgb(98%,97%,94%); fill-rule: evenodd;"/>
			<path d="M 60.571429,46 L 60.571429,628 Z" style="stroke: rgb(86%,87%,83%); stroke-linecap: butt; stroke-width: 0.35;"/>
			<path d="M 81.357143,46 L 81.357143,628 Z" style="stroke: rgb(86%,87%,83%); stroke-linecap: butt; stroke-width: 0.35;"/>
			<path d="M 102.142857,46 L 102.142857,628 Z" style="stroke: rgb(86%,87%,83%); stroke-linecap: butt; stroke-width: 0.35;"/>
			<path d="M 122.928571,46 L 122.928571,628 Z" style="stroke: rgb(86%,87%,83%); stroke-linecap: butt; stroke-width: 0.35;"/>
			<path d="M 143.714286,46 L 143.714286,628 Z" style="stroke: rgb(86%,87%,83%); stroke-linecap: butt; stroke-width: 0.35;"/>
			<path d="M 164.5,46 L 164.5,628 Z" style="stroke: rgb(86%,87%,83%); stroke-linecap: butt; stroke-width: 0.35;"/>
			<path d="M 185.285714,46 L 185.285714,628 Z" style="stroke: rgb(86%,87%,83%); stroke-linecap: butt; stroke-width: 0.35;"/>
			<path d="M 206.071429,46 L 206.071429,628 Z" style="stroke: rgb(86%,87%,83%); stroke-linecap: butt; stroke-width: 0.35;"/>
			<path d="M 226.857143,46 L 226.857143,628 Z" style="stroke: rgb(86%,87%,83%); stroke-linecap: butt; stroke-width: 0.35;"/>
			<path d="M 247.642857,46 L 247.642857,628 Z" style="stroke: rgb(86%,87%,83%); stroke-linecap: butt; stroke-width: 0.35;"/>
			<path d="M 268.428571,46 L 268.428571,628 Z" style="stroke: rgb(86%,87%,83%); stroke-linecap: butt; stroke-width: 0.35;"/>
			<path d="M 289.214286,46 L 289.214286,628 Z" style="stroke: rgb(86%,87%,83%); stroke-linecap: butt; stroke-width: 0.35;"/>
			<path d="M 310,46 L 310,628 Z" style="stroke: rgb(86%,87%,83%); stroke-linecap: butt; stroke-width: 0.35;"/>
			<path d="M 330.785714,46 L 330.785714,628 Z" style="stroke: rgb(86%,87%,83%); stroke-linecap: butt; stroke-width: 0.35;"/>
			<path d="M 351.571429,46 L 351.571429,628 Z" style="stroke: rgb(86%,87%,83%); stroke-linecap: butt; stroke-width: 0.35;"/>
			<path d="M 372.357143,46 L 372.357143,628 Z" style="stroke: rgb(86%,87%,83%); stroke-linecap: butt; stroke-width: 0.35;"/>
			<path d="M 393.142857,46 L 393.142857,628 Z" style="stroke: rgb(86%,87%,83%); stroke-linecap: butt; stroke-width: 0.35;"/>
			<path d="M 413.928571,46 L 413.928571,628 Z" style="stroke: rgb(86%,87%,83%); stroke-linecap: butt; stroke-width: 0.35;"/>
			<path d="M 434.714286,46 L 434.714286,628 Z" style="stroke: rgb(86%,87%,83%); stroke-linecap: butt; stroke-width: 0.35;"/>
			<path d="M 455.5,46 L 455.5,628 Z" style="stroke: rgb(86%,87%,83%); stroke-linecap: butt; stroke-width: 0.35;"/>
			<path d="M 476.285714,46 L 476.285714,628 Z" style="stroke: rgb(86%,87%,83%); stroke-linecap: butt; stroke-width: 0.35;"/>
			<path d="M 497.071429,46 L 497.071429,628 Z" style="stroke: rgb(86%,87%,83%); stroke-linecap: butt; stroke-width: 0.35;"/>
			<path d="M 517.857143,46 L 517.857143,628 Z" style="stroke: rgb(86%,87%,83%); stroke-linecap: butt; stroke-width: 0.35;"/>
			<path d="M 538.642857,46 L 538.642857,628 Z" style="stroke: rgb(86%,87%,83%); stroke-linecap: butt; stroke-width: 0.35;"/>
			<path d="M 559.428571,46 L 559.428571,628 Z" style="stroke: rgb(86%,87%,83%); stroke-linecap: butt; stroke-width: 0.35;"/>
			<path d="M 60.571429,46 L 559.428571,46 Z" style="stroke: rgb(86%,87%,83%); stroke-linecap: butt; stroke-width: 0.35;"/>
			<path d="M 60.571429,66.785714 L 559.428571,66.785714 Z" style="stroke: rgb(86%,87%,83%); stroke-linecap: butt; stroke-width: 0.35;"/>
			<path d="M 60.571429,87.571429 L 559.428571,87.571429 Z" style="stroke: rgb(86%,87%,83%); stroke-linecap: butt; stroke-width: 0.35;"/>
			<path d="M 60.571429,108.357143 L 559.428571,108.357143 Z" style="stroke: rgb(86%,87%,83%); stroke-linecap: butt; stroke-width: 0.35;"/>
			<path d="M 60.571429,129.142857 L 559.428571,129.142857 Z" style="stroke: rgb(86%,87%,83%); stroke-linecap: butt; stroke-width: 0.35;"/>
			<path d="M 60.571429,149.928571 L 559.428571,149.928571 Z" style="stroke: rgb(86%,87%,83%); stroke-linecap: butt; stroke-width: 0.35;"/>
			<path d="M 60.571429,170.714286 L 559.428571,170.714286 Z" style="stroke: rgb(86%,87%,83%); stroke-linecap: butt; stroke-width: 0.35;"/>
			<path d="M 60.571429,191.5 L 559.428571,191.5 Z" style="stroke: rgb(86%,87%,83%); stroke-linecap: butt; stroke-width: 0.35;"/>
			<path d="M 60.571429,212.285714 L 559.428571,212.285714 Z" style="stroke: rgb(86%,87%,83%); stroke-linecap: butt; stroke-width: 0.35;"/>
			<path d="M 60.571429,233.071429 L 559.428571,233.071429 Z" style="stroke: rgb(86%,87%,83%); stroke-linecap: butt; stroke-width: 0.35;"/>
			<path d="M 60.571429,253.857143 L 559.428571,253.857143 Z" style="stroke: rgb(86%,87%,83%); stroke-linecap: butt; stroke-width: 0.35;"/>
			<path d="M 60.571429,274.642857 L 559.428571,274.642857 Z" style="stroke: rgb(86%,87%,83%); stroke-linecap: butt; stroke-width: 0.35;"/>
			<path d="M 60.571429,295.428571 L 559.428571,295.428571 Z" style="stroke: rgb(86%,87%,83%); stroke-linecap: butt; stroke-width: 0.35;"/>
			<path d="M 60.571429,316.214286 L 559.428571,316.214286 Z" style="stroke: rgb(86%,87%,83%); stroke-linecap: butt; stroke-width: 0.35;"/>
			<path d="M 60.571429,337 L 559.428571,337 Z" style="stroke: rgb(86%,87%,83%); stroke-linecap: butt; stroke-width: 0.35;"/>
			<path d="M 60.571429,357.785714 L 559.428571,357.785714 Z" style="stroke: rgb(86%,87%,83%); stroke-linecap: butt; stroke-width: 0.35;"/>
			<path d="M 60.571429,378.571429 L 559.428571,378.571429 Z" style="stroke: rgb(86%,87%,83%); stroke-linecap: butt; stroke-width: 0.35;"/>
			<path d="M 60.571429,399.357143 L 559.428571,399.357143 Z" style="stroke: rgb(86%,87%,83%); stroke-linecap: butt; stroke-width: 0.35;"/>
			<path d="M 60.571429,420.142857 L 559.428571,420.142857 Z" style="stroke: rgb(86%,87%,83%); stroke-linecap: butt; stroke-width: 0.35;"/>
			<path d="M 60.571429,440.928571 L 559.428571,440.928571 Z" style="stroke: rgb(86%,87%,83%); stroke-linecap: butt; stroke-width: 0.35;"/>
			<path d="M 60.571429,461.714286 L 559.428571,461.714286 Z" style="stroke: rgb(86%,87%,83%); stroke-linecap: butt; stroke-width: 0.35;"/>
			<path d="M 60.571429,482.5 L 559.428571,482.5 Z" style="stroke: rgb(86%,87%,83%); stroke-linecap: butt; stroke-width: 0.35;"/>
			<path d="M 60.571429,503.285714 L 559.428571,503.285714 Z" style="stroke: rgb(86%,87%,83%); stroke-linecap: butt; stroke-width: 0.35;"/>
			<path d="M 60.571429,524.071429 L 559.428571,524.071429 Z" style="stroke: rgb(86%,87%,83%); stroke-linecap: butt; stroke-width: 0.35;"/>
			<path d="M 60.571429,544.857143 L 559.428571,544.857143 Z" style="stroke: rgb(86%,87%,83%); stroke-linecap: butt; stroke-width: 0.35;"/>
			<path d="M 60.571429,565.642857 L 559.428571,565.642857 Z" style="stroke: rgb(86%,87%,83%); stroke-linecap: butt; stroke-width: 0.35;"/>
			<path d="M 60.571429,586.428571 L 559.428571,586.428571 Z" style="stroke: rgb(86%,87%,83%); stroke-linecap: butt; stroke-width: 0.35;"/>
			<path d="M 60.571429,607.214286 L 559.428571,607.214286 Z" style="stroke: rgb(86%,87%,83%); stroke-linecap: butt; stroke-width: 0.35;"/>
			<path d="M 60.571429,628 L 559.428571,628 Z" style="stroke: rgb(86%,87%,83%); stroke-linecap: butt; stroke-width: 0.35;"/>
			<rect x="60.571428571428584" y="46.0" width="498.8571428571429" height="582.0" style="stroke: rgb(66%,71%,67%); stroke-linecap: butt; stroke-width: 0.8; fill: none; fill-rule: evenodd;"/>
			<text x="55.398332868303584" y="32.0" style="font-family: Atlas; font-size: 7px;fill: rgb(14%,20%,18%); stroke:none;" transform="translate(0,64) scale(1,-1)">-24</text>
			<text x="117.75547572544644" y="32.0" style="font-family: Atlas; font-size: 7px;fill: rgb(14%,20%,18%); stroke:none;" transform="translate(0,64) scale(1,-1)">-18</text>
			<text x="180.11261858258928" y="32.0" style="font-family: Atlas; font-size: 7px;fill: rgb(14%,20%,18%); stroke:none;" transform="translate(0,64) scale(1,-1)">-12</text>
			<text x="244.35648018973214" y="32.0" style="font-family: Atlas; font-size: 7px;fill: rgb(14%,20%,18%); stroke:none;" transform="translate(0,64) scale(1,-1)">-6</text>
			<text x="308.11328125" y="32.0" style="font-family: Atlas; font-size: 7px;fill: rgb(14%,20%,18%); stroke:none;" transform="translate(0,64) scale(1,-1)">0</text>
			<text x="370.4704241071429" y="32.0" style="font-family: Atlas; font-size: 7px;fill: rgb(14%,20%,18%); stroke:none;" transform="translate(0,64) scale(1,-1)">6</text>
			<text x="430.94084821428567" y="32.0" style="font-family: Atlas; font-size: 7px;fill: rgb(14%,20%,18%); stroke:none;" transform="translate(0,64) scale(1,-1)">12</text>
			<text x="493.29799107142856" y="32.0" style="font-family: Atlas; font-size: 7px;fill: rgb(14%,20%,18%); stroke:none;" transform="translate(0,64) scale(1,-1)">18</text>
			<text x="555.6551339285714" y="32.0" style="font-family: Atlas; font-size: 7px;fill: rgb(14%,20%,18%); stroke:none;" transform="translate(0,64) scale(1,-1)">24</text>
			<text x="43.225237165178584" y="64.78571428571428" style="font-family: Atlas; font-size: 7px;fill: rgb(14%,20%,18%); stroke:none;" transform="translate(0,129) scale(1,-1)">-18</text>
			<text x="43.225237165178584" y="127.14285714285714" style="font-family: Atlas; font-size: 7px;fill: rgb(14%,20%,18%); stroke:none;" transform="translate(0,254) scale(1,-1)">-12</text>
			<text x="46.998674665178584" y="189.5" style="font-family: Atlas; font-size: 7px;fill: rgb(14%,20%,18%); stroke:none;" transform="translate(0,379) scale(1,-1)">-6</text>
			<text x="49.797991071428584" y="251.85714285714283" style="font-family: Atlas; font-size: 7px;fill: rgb(14%,20%,18%); stroke:none;" transform="translate(0,503) scale(1,-1)">0</text>
			<text x="49.797991071428584" y="314.2142857142857" style="font-family: Atlas; font-size: 7px;fill: rgb(14%,20%,18%); stroke:none;" transform="translate(0,628) scale(1,-1)">6</text>
			<text x="46.024553571428584" y="376.57142857142856" style="font-family: Atlas; font-size: 7px;fill: rgb(14%,20%,18%); stroke:none;" transform="translate(0,753) scale(1,-1)">12</text>
			<text x="46.024553571428584" y="438.9285714285714" style="font-family: Atlas; font-size: 7px;fill: rgb(14%,20%,18%); stroke:none;" transform="translate(0,877) scale(1,-1)">18</text>
			<text x="46.024553571428584" y="501.2857142857143" style="font-family: Atlas; font-size: 7px;fill: rgb(14%,20%,18%); stroke:none;" transform="translate(0,1002) scale(1,-1)">24</text>
			<text x="46.024553571428584" y="563.6428571428571" style="font-family: Atlas; font-size: 7px;fill: rgb(14%,20%,18%); stroke:none;" transform="translate(0,1127) scale(1,-1)">30</text>
			<text x="46.024553571428584" y="626.0" style="font-family: Atlas; font-size: 7px;fill: rgb(14%,20%,18%); stroke:none;" transform="translate(0,1252) scale(1,-1)">36</text>
			<rect x="258.0357142857143" y="97.96428571428571" width="103.92857142857139" height="62.35714285714285" style="stroke: rgb(49%,55%,51%); stroke-linecap: butt; stroke-width: 0.65; fill: rgb(81%,84%,80%); fill-rule: evenodd;"/>
			<text x="305.271484375" y="131.14285714285714" style="font-family: AtlasBold; font-size: 8px;fill: rgb(14%,20%,18%); stroke:none;" transform="translate(0,262) scale(1,-1)">Z1</text>
			<rect x="278.82142857142856" y="243.4642857142857" width="62.35714285714283" height="83.14285714285714" style="stroke: rgb(49%,55%,51%); stroke-linecap: butt; stroke-width: 0.65; fill: rgb(83%,89%,79%); fill-rule: evenodd;"/>
			<text x="305.271484375" y="287.0357142857143" style="font-family: AtlasBold; font-size: 8px;fill: rgb(14%,20%,18%); stroke:none;" transform="translate(0,574) scale(1,-1)">Z2</text>
			<rect x="143.71428571428572" y="233.07142857142856" width="83.14285714285714" height="145.5" style="stroke: rgb(49%,55%,51%); stroke-linecap: butt; stroke-width: 0.65; fill: rgb(93%,79%,76%); fill-rule: evenodd;"/>
			<text x="180.55719866071428" y="307.82142857142856" style="font-family: AtlasBold; font-size: 8px;fill: rgb(14%,20%,18%); stroke:none;" transform="translate(0,615) scale(1,-1)">Z3</text>
			<rect x="268.42857142857144" y="388.9642857142857" width="124.71428571428572" height="83.14285714285717" style="stroke: rgb(49%,55%,51%); stroke-linecap: butt; stroke-width: 0.65; fill: rgb(93%,79%,76%); fill-rule: evenodd;"/>
			<text x="326.05719866071433" y="432.5357142857143" style="font-family: AtlasBold; font-size: 8px;fill: rgb(14%,20%,18%); stroke:none;" transform="translate(0,865) scale(1,-1)">Z4</text>
			<rect x="382.75" y="368.1785714285714" width="83.14285714285711" height="83.14285714285717" style="stroke: rgb(49%,55%,51%); stroke-linecap: butt; stroke-width: 0.65; fill: rgb(93%,79%,76%); fill-rule: evenodd;"/>
			<text x="419.59291294642856" y="411.75" style="font-family: AtlasBold; font-size: 8px;fill: rgb(14%,20%,18%); stroke:none;" transform="translate(0,823) scale(1,-1)">Z5</text>
			<rect x="434.71428571428567" y="253.85714285714283" width="51.96428571428572" height="72.75" style="stroke: rgb(49%,55%,51%); stroke-linecap: butt; stroke-width: 0.65; fill: rgb(65%,71%,74%); fill-rule: evenodd;"/>
			<text x="455.96791294642856" y="292.23214285714283" style="font-family: AtlasBold; font-size: 8px;fill: rgb(14%,20%,18%); stroke:none;" transform="translate(0,584) scale(1,-1)">Z6</text>
			<rect x="372.3571428571429" y="212.28571428571428" width="41.571428571428555" height="41.571428571428555" style="stroke: rgb(49%,55%,51%); stroke-linecap: butt; stroke-width: 0.65; fill: rgb(83%,89%,79%); fill-rule: evenodd;"/>
			<text x="388.4143415178571" y="235.07142857142856" style="font-family: AtlasBold; font-size: 8px;fill: rgb(14%,20%,18%); stroke:none;" transform="translate(0,470) scale(1,-1)">Z7</text>
			<rect x="81.35714285714286" y="118.75" width="72.75" height="72.75" style="stroke: rgb(49%,55%,51%); stroke-linecap: butt; stroke-width: 0.65; fill: rgb(83%,89%,79%); fill-rule: evenodd;"/>
			<text x="113.00362723214286" y="157.125" style="font-family: AtlasBold; font-size: 8px;fill: rgb(14%,20%,18%); stroke:none;" transform="translate(0,314) scale(1,-1)">Z8</text>
			<rect x="476.2857142857142" y="118.75" width="72.75" height="72.75" style="stroke: rgb(49%,55%,51%); stroke-linecap: butt; stroke-width: 0.65; fill: rgb(83%,89%,79%); fill-rule: evenodd;"/>
			<text x="507.9321986607142" y="157.125" style="font-family: AtlasBold; font-size: 8px;fill: rgb(14%,20%,18%); stroke:none;" transform="translate(0,314) scale(1,-1)">Z9</text>
			<rect x="461.73571428571427" y="258.0142857142857" width="22.8642857142857" height="35.33571428571429" style="stroke: rgb(20%,30%,35%); stroke-linecap: butt; stroke-width: 1.5; fill: rgb(38%,47%,52%); fill-rule: evenodd; stroke-dasharray: 4, 2;"/>
			<text x="462.0293073381697" y="268.6821428571428" style="font-family: Atlas; font-size: 6.5px;fill: rgb(14%,24%,28%); stroke:none;" transform="translate(0,537) scale(1,-1)">base Z6</text>
			<polyline points="310 129.1429, 310 201.8929" style="stroke: rgb(44%,35%,19%); stroke-linecap: round; stroke-width: 31.178571428571427; fill: None; fill-rule: evenodd;"/>
			<polyline points="310 129.1429, 310 201.8929" style="stroke: rgb(44%,35%,19%); stroke-linecap: butt; stroke-width: 1; fill: None; fill-rule: evenodd;"/>
			<polyline points="310 201.8929, 278.8214 222.6786" style="stroke: rgb(44%,35%,19%); stroke-linecap: round; stroke-width: 31.178571428571427; fill: None; fill-rule: evenodd;"/>
			<polyline points="310 201.8929, 278.8214 222.6786" style="stroke: rgb(44%,35%,19%); stroke-linecap: butt; stroke-width: 1; fill: None; fill-rule: evenodd;"/>
			<polyline points="278.8214 222.6786, 268.4286 264.25" style="stroke: rgb(44%,35%,19%); stroke-linecap: round; stroke-width: 31.178571428571427; fill: None; fill-rule: evenodd;"/>
			<polyline points="278.8214 222.6786, 268.4286 264.25" style="stroke: rgb(44%,35%,19%); stroke-linecap: butt; stroke-width: 1; fill: None; fill-rule: evenodd;"/>
			<polyline points="268.4286 264.25, 268.4286 305.8214" style="stroke: rgb(44%,35%,19%); stroke-linecap: round; stroke-width: 31.178571428571427; fill: None; fill-rule: evenodd;"/>
			<polyline points="268.4286 264.25, 268.4286 305.8214" style="stroke: rgb(44%,35%,19%); stroke-linecap: butt; stroke-width: 1; fill: None; fill-rule: evenodd;"/>
			<polyline points="268.4286 305.8214, 310 305.8214" style="stroke: rgb(44%,35%,19%); stroke-linecap: round; stroke-width: 31.178571428571427; fill: None; fill-rule: evenodd;"/>
			<polyline points="268.4286 305.8214, 310 305.8214" style="stroke: rgb(44%,35%,19%); stroke-linecap: butt; stroke-width: 1; fill: None; fill-rule: evenodd;"/>
			<polyline points="310 305.8214, 351.5714 305.8214" style="stroke: rgb(44%,35%,19%); stroke-linecap: round; stroke-width: 31.178571428571427; fill: None; fill-rule: evenodd;"/>
			<polyline points="310 305.8214, 351.5714 305.8214" style="stroke: rgb(44%,35%,19%); stroke-linecap: butt; stroke-width: 1; fill: None; fill-rule: evenodd;"/>
			<polyline points="351.5714 305.8214, 361.9643 243.4643" style="stroke: rgb(44%,35%,19%); stroke-linecap: round; stroke-width: 31.178571428571427; fill: None; fill-rule: evenodd;"/>
			<polyline points="351.5714 305.8214, 361.9643 243.4643" style="stroke: rgb(44%,35%,19%); stroke-linecap: butt; stroke-width: 1; fill: None; fill-rule: evenodd;"/>
			<polyline points="361.9643 243.4643, 351.5714 222.6786" style="stroke: rgb(44%,35%,19%); stroke-linecap: round; stroke-width: 31.178571428571427; fill: None; fill-rule: evenodd;"/>
			<polyline points="361.9643 243.4643, 351.5714 222.6786" style="stroke: rgb(44%,35%,19%); stroke-linecap: butt; stroke-width: 1; fill: None; fill-rule: evenodd;"/>
			<polyline points="351.5714 222.6786, 310 129.1429" style="stroke: rgb(44%,35%,19%); stroke-linecap: round; stroke-width: 31.178571428571427; fill: None; fill-rule: evenodd;"/>
			<polyline points="351.5714 222.6786, 310 129.1429" style="stroke: rgb(44%,35%,19%); stroke-linecap: butt; stroke-width: 1; fill: None; fill-rule: evenodd;"/>
			<text x="272.42857142857144" y="310.82142857142856" style="font-family: AtlasBold; font-size: 7px;fill: rgb(44%,35%,19%); stroke:none;" transform="translate(0,621) scale(1,-1)">A1</text>
			<polyline points="310 129.1429, 278.8214 170.7143" style="stroke: rgb(7%,41%,47%); stroke-linecap: round; stroke-width: 31.178571428571427; fill: None; fill-rule: evenodd;"/>
			<polyline points="310 129.1429, 278.8214 170.7143" style="stroke: rgb(7%,41%,47%); stroke-linecap: butt; stroke-width: 1; fill: None; fill-rule: evenodd;"/>
			<polyline points="278.8214 170.7143, 278.8214 201.8929" style="stroke: rgb(7%,41%,47%); stroke-linecap: round; stroke-width: 31.178571428571427; fill: None; fill-rule: evenodd;"/>
			<polyline points="278.8214 170.7143, 278.8214 201.8929" style="stroke: rgb(7%,41%,47%); stroke-linecap: butt; stroke-width: 1; fill: None; fill-rule: evenodd;"/>
			<polyline points="278.8214 201.8929, 258.0357 222.6786" style="stroke: rgb(7%,41%,47%); stroke-linecap: round; stroke-width: 31.178571428571427; fill: None; fill-rule: evenodd;"/>
			<polyline points="278.8214 201.8929, 258.0357 222.6786" style="stroke: rgb(7%,41%,47%); stroke-linecap: butt; stroke-width: 1; fill: None; fill-rule: evenodd;"/>
			<polyline points="258.0357 222.6786, 206.0714 222.6786" style="stroke: rgb(7%,41%,47%); stroke-linecap: round; stroke-width: 31.178571428571427; fill: None; fill-rule: evenodd;"/>
			<polyline points="258.0357 222.6786, 206.0714 222.6786" style="stroke: rgb(7%,41%,47%); stroke-linecap: butt; stroke-width: 1; fill: None; fill-rule: evenodd;"/>
			<polyline points="206.0714 222.6786, 206.0714 243.4643" style="stroke: rgb(7%,41%,47%); stroke-linecap: round; stroke-width: 31.178571428571427; fill: None; fill-rule: evenodd;"/>
			<polyline points="206.0714 222.6786, 206.0714 243.4643" style="stroke: rgb(7%,41%,47%); stroke-linecap: butt; stroke-width: 1; fill: None; fill-rule: evenodd;"/>
			<polyline points="206.0714 243.4643, 206.0714 326.6071" style="stroke: rgb(7%,41%,47%); stroke-linecap: round; stroke-width: 31.178571428571427; fill: None; fill-rule: evenodd;"/>
			<polyline points="206.0714 243.4643, 206.0714 326.6071" style="stroke: rgb(7%,41%,47%); stroke-linecap: butt; stroke-width: 1; fill: None; fill-rule: evenodd;"/>
			<polyline points="206.0714 326.6071, 174.8929 337" style="stroke: rgb(7%,41%,47%); stroke-linecap: round; stroke-width: 31.178571428571427; fill: None; fill-rule: evenodd;"/>
			<polyline points="206.0714 326.6071, 174.8929 337" style="stroke: rgb(7%,41%,47%); stroke-linecap: butt; stroke-width: 1; fill: None; fill-rule: evenodd;"/>
			<polyline points="174.8929 337, 174.8929 409.75" style="stroke: rgb(7%,41%,47%); stroke-linecap: round; stroke-width: 31.178571428571427; fill: None; fill-rule: evenodd;"/>
			<polyline points="174.8929 337, 174.8929 409.75" style="stroke: rgb(7%,41%,47%); stroke-linecap: butt; stroke-width: 1; fill: None; fill-rule: evenodd;"/>
			<polyline points="174.8929 409.75, 278.8214 409.75" style="stroke: rgb(7%,41%,47%); stroke-linecap: round; stroke-width: 31.178571428571427; fill: None; fill-rule: evenodd;"/>
			<polyline points="174.8929 409.75, 278.8214 409.75" style="stroke: rgb(7%,41%,47%); stroke-linecap: butt; stroke-width: 1; fill: None; fill-rule: evenodd;"/>
			<polyline points="278.8214 409.75, 310 420.1429" style="stroke: rgb(7%,41%,47%); stroke-linecap: round; stroke-width: 31.178571428571427; fill: None; fill-rule: evenodd;"/>
			<polyline points="278.8214 409.75, 310 420.1429" style="stroke: rgb(7%,41%,47%); stroke-linecap: butt; stroke-width: 1; fill: None; fill-rule: evenodd;"/>
			<polyline points="310 420.1429, 361.9643 440.9286" style="stroke: rgb(7%,41%,47%); stroke-linecap: round; stroke-width: 31.178571428571427; fill: None; fill-rule: evenodd;"/>
			<polyline points="310 420.1429, 361.9643 440.9286" style="stroke: rgb(7%,41%,47%); stroke-linecap: butt; stroke-width: 1; fill: None; fill-rule: evenodd;"/>
			<polyline points="361.9643 440.9286, 372.3571 378.5714" style="stroke: rgb(7%,41%,47%); stroke-linecap: round; stroke-width: 31.178571428571427; fill: None; fill-rule: evenodd;"/>
			<polyline points="361.9643 440.9286, 372.3571 378.5714" style="stroke: rgb(7%,41%,47%); stroke-linecap: butt; stroke-width: 1; fill: None; fill-rule: evenodd;"/>
			<polyline points="372.3571 378.5714, 413.9286 399.3571" style="stroke: rgb(7%,41%,47%); stroke-linecap: round; stroke-width: 31.178571428571427; fill: None; fill-rule: evenodd;"/>
			<polyline points="372.3571 378.5714, 413.9286 399.3571" style="stroke: rgb(7%,41%,47%); stroke-linecap: butt; stroke-width: 1; fill: None; fill-rule: evenodd;"/>
			<text x="210.07142857142858" y="331.60714285714283" style="font-family: AtlasBold; font-size: 7px;fill: rgb(7%,41%,47%); stroke:none;" transform="translate(0,663) scale(1,-1)">A2</text>
			<polyline points="310 129.1429, 341.1786 170.7143" style="stroke: rgb(7%,41%,47%); stroke-linecap: round; stroke-width: 31.178571428571427; fill: None; fill-rule: evenodd;"/>
			<polyline points="310 129.1429, 341.1786 170.7143" style="stroke: rgb(7%,41%,47%); stroke-linecap: butt; stroke-width: 1; fill: None; fill-rule: evenodd;"/>
			<polyline points="341.1786 170.7143, 351.5714 191.5" style="stroke: rgb(7%,41%,47%); stroke-linecap: round; stroke-width: 31.178571428571427; fill: None; fill-rule: evenodd;"/>
			<polyline points="341.1786 170.7143, 351.5714 191.5" style="stroke: rgb(7%,41%,47%); stroke-linecap: butt; stroke-width: 1; fill: None; fill-rule: evenodd;"/>
			<polyline points="351.5714 191.5, 351.5714 222.6786" style="stroke: rgb(7%,41%,47%); stroke-linecap: round; stroke-width: 31.178571428571427; fill: None; fill-rule: evenodd;"/>
			<polyline points="351.5714 191.5, 351.5714 222.6786" style="stroke: rgb(7%,41%,47%); stroke-linecap: butt; stroke-width: 1; fill: None; fill-rule: evenodd;"/>
			<polyline points="351.5714 222.6786, 361.9643 243.4643" style="stroke: rgb(7%,41%,47%); stroke-linecap: round; stroke-width: 31.178571428571427; fill: None; fill-rule: evenodd;"/>
			<polyline points="351.5714 222.6786, 361.9643 243.4643" style="stroke: rgb(7%,41%,47%); stroke-linecap: butt; stroke-width: 1; fill: None; fill-rule: evenodd;"/>
			<polyline points="361.9643 243.4643, 413.9286 285.0357" style="stroke: rgb(7%,41%,47%); stroke-linecap: round; stroke-width: 31.178571428571427; fill: None; fill-rule: evenodd;"/>
			<polyline points="361.9643 243.4643, 413.9286 285.0357" style="stroke: rgb(7%,41%,47%); stroke-linecap: butt; stroke-width: 1; fill: None; fill-rule: evenodd;"/>
			<polyline points="413.9286 285.0357, 434.7143 305.8214" style="stroke: rgb(7%,41%,47%); stroke-linecap: round; stroke-width: 31.178571428571427; fill: None; fill-rule: evenodd;"/>
			<polyline points="413.9286 285.0357, 434.7143 305.8214" style="stroke: rgb(7%,41%,47%); stroke-linecap: butt; stroke-width: 1; fill: None; fill-rule: evenodd;"/>
			<polyline points="434.7143 305.8214, 445.1071 368.1786" style="stroke: rgb(7%,41%,47%); stroke-linecap: round; stroke-width: 31.178571428571427; fill: None; fill-rule: evenodd;"/>
			<polyline points="434.7143 305.8214, 445.1071 368.1786" style="stroke: rgb(7%,41%,47%); stroke-linecap: butt; stroke-width: 1; fill: None; fill-rule: evenodd;"/>
			<polyline points="445.1071 368.1786, 413.9286 399.3571" style="stroke: rgb(7%,41%,47%); stroke-linecap: round; stroke-width: 31.178571428571427; fill: None; fill-rule: evenodd;"/>
			<polyline points="445.1071 368.1786, 413.9286 399.3571" style="stroke: rgb(7%,41%,47%); stroke-linecap: butt; stroke-width: 1; fill: None; fill-rule: evenodd;"/>
			<text x="355.57142857142856" y="227.67857142857142" style="font-family: AtlasBold; font-size: 7px;fill: rgb(7%,41%,47%); stroke:none;" transform="translate(0,455) scale(1,-1)">A3</text>
			<polyline points="310 129.1429, 278.8214 170.7143" style="stroke: rgb(44%,35%,19%); stroke-linecap: round; stroke-width: 33.25714285714286; fill: None; fill-rule: evenodd;"/>
			<polyline points="310 129.1429, 278.8214 170.7143" style="stroke: rgb(44%,35%,19%); stroke-linecap: butt; stroke-width: 1; fill: None; fill-rule: evenodd;"/>
			<polyline points="278.8214 170.7143, 258.0357 181.1071" style="stroke: rgb(44%,35%,19%); stroke-linecap: round; stroke-width: 33.25714285714286; fill: None; fill-rule: evenodd;"/>
			<polyline points="278.8214 170.7143, 258.0357 181.1071" style="stroke: rgb(44%,35%,19%); stroke-linecap: butt; stroke-width: 1; fill: None; fill-rule: evenodd;"/>
			<polyline points="258.0357 181.1071, 237.25 181.1071" style="stroke: rgb(44%,35%,19%); stroke-linecap: round; stroke-width: 33.25714285714286; fill: None; fill-rule: evenodd;"/>
			<polyline points="258.0357 181.1071, 237.25 181.1071" style="stroke: rgb(44%,35%,19%); stroke-linecap: butt; stroke-width: 1; fill: None; fill-rule: evenodd;"/>
			<polyline points="237.25 181.1071, 258.0357 181.1071" style="stroke: rgb(44%,35%,19%); stroke-linecap: round; stroke-width: 33.25714285714286; fill: None; fill-rule: evenodd;"/>
			<polyline points="237.25 181.1071, 258.0357 181.1071" style="stroke: rgb(44%,35%,19%); stroke-linecap: butt; stroke-width: 1; fill: None; fill-rule: evenodd;"/>
			<polyline points="258.0357 181.1071, 258.0357 139.5357" style="stroke: rgb(44%,35%,19%); stroke-linecap: round; stroke-width: 33.25714285714286; fill: None; fill-rule: evenodd;"/>
			<polyline points="258.0357 181.1071, 258.0357 139.5357" style="stroke: rgb(44%,35%,19%); stroke-linecap: butt; stroke-width: 1; fill: None; fill-rule: evenodd;"/>
			<polyline points="258.0357 139.5357, 185.2857 118.75" style="stroke: rgb(44%,35%,19%); stroke-linecap: round; stroke-width: 33.25714285714286; fill: None; fill-rule: evenodd;"/>
			<polyline points="258.0357 139.5357, 185.2857 118.75" style="stroke: rgb(44%,35%,19%); stroke-linecap: butt; stroke-width: 1; fill: None; fill-rule: evenodd;"/>
			<polyline points="185.2857 118.75, 112.5357 160.3214" style="stroke: rgb(44%,35%,19%); stroke-linecap: round; stroke-width: 33.25714285714286; fill: None; fill-rule: evenodd;"/>
			<polyline points="185.2857 118.75, 112.5357 160.3214" style="stroke: rgb(44%,35%,19%); stroke-linecap: butt; stroke-width: 1; fill: None; fill-rule: evenodd;"/>
			<text x="241.25" y="186.10714285714286" style="font-family: AtlasBold; font-size: 7px;fill: rgb(44%,35%,19%); stroke:none;" transform="translate(0,372) scale(1,-1)">A4</text>
			<polyline points="310 129.1429, 351.5714 149.9286" style="stroke: rgb(44%,35%,19%); stroke-linecap: round; stroke-width: 33.25714285714286; fill: None; fill-rule: evenodd;"/>
			<polyline points="310 129.1429, 351.5714 149.9286" style="stroke: rgb(44%,35%,19%); stroke-linecap: butt; stroke-width: 1; fill: None; fill-rule: evenodd;"/>
			<polyline points="351.5714 149.9286, 434.7143 129.1429" style="stroke: rgb(44%,35%,19%); stroke-linecap: round; stroke-width: 33.25714285714286; fill: None; fill-rule: evenodd;"/>
			<polyline points="351.5714 149.9286, 434.7143 129.1429" style="stroke: rgb(44%,35%,19%); stroke-linecap: butt; stroke-width: 1; fill: None; fill-rule: evenodd;"/>
			<polyline points="434.7143 129.1429, 507.4643 160.3214" style="stroke: rgb(44%,35%,19%); stroke-linecap: round; stroke-width: 33.25714285714286; fill: None; fill-rule: evenodd;"/>
			<polyline points="434.7143 129.1429, 507.4643 160.3214" style="stroke: rgb(44%,35%,19%); stroke-linecap: butt; stroke-width: 1; fill: None; fill-rule: evenodd;"/>
			<text x="355.57142857142856" y="154.92857142857142" style="font-family: AtlasBold; font-size: 7px;fill: rgb(44%,35%,19%); stroke:none;" transform="translate(0,309) scale(1,-1)">A5</text>
			<circle cx="310.0" cy="129.14285714285714" r="3.8" style="stroke: rgb(13%,35%,52%); stroke-linecap: butt; stroke-width: 1.2; fill: rgb(100%,100%,100%); fill-rule: evenodd;"/>
			<text x="315.0" y="122.14285714285714" style="font-family: AtlasBold; font-size: 7px;fill: rgb(13%,35%,52%); stroke:none;" transform="translate(0,244) scale(1,-1)">K1</text>
			<circle cx="310.0" cy="129.14285714285714" r="3.8" style="stroke: rgb(13%,35%,52%); stroke-linecap: butt; stroke-width: 1.2; fill: rgb(100%,100%,100%); fill-rule: evenodd;"/>
			<text x="315.0" y="122.14285714285714" style="font-family: AtlasBold; font-size: 7px;fill: rgb(13%,35%,52%); stroke:none;" transform="translate(0,244) scale(1,-1)">K2</text>
			<circle cx="278.82142857142856" cy="170.71428571428572" r="3.8" style="stroke: rgb(13%,35%,52%); stroke-linecap: butt; stroke-width: 1.2; fill: rgb(100%,100%,100%); fill-rule: evenodd;"/>
			<text x="283.82142857142856" y="163.71428571428572" style="font-family: AtlasBold; font-size: 7px;fill: rgb(13%,35%,52%); stroke:none;" transform="translate(0,327) scale(1,-1)">K3</text>
			<circle cx="206.07142857142858" cy="243.4642857142857" r="3.8" style="stroke: rgb(13%,35%,52%); stroke-linecap: butt; stroke-width: 1.2; fill: rgb(100%,100%,100%); fill-rule: evenodd;"/>
			<text x="211.07142857142858" y="236.4642857142857" style="font-family: AtlasBold; font-size: 7px;fill: rgb(13%,35%,52%); stroke:none;" transform="translate(0,472) scale(1,-1)">K4</text>
			<circle cx="206.07142857142858" cy="326.60714285714283" r="3.8" style="stroke: rgb(13%,35%,52%); stroke-linecap: butt; stroke-width: 1.2; fill: rgb(100%,100%,100%); fill-rule: evenodd;"/>
			<text x="211.07142857142858" y="319.60714285714283" style="font-family: AtlasBold; font-size: 7px;fill: rgb(13%,35%,52%); stroke:none;" transform="translate(0,639) scale(1,-1)">K5</text>
			<circle cx="278.82142857142856" cy="399.35714285714283" r="3.8" style="stroke: rgb(13%,35%,52%); stroke-linecap: butt; stroke-width: 1.2; fill: rgb(100%,100%,100%); fill-rule: evenodd;"/>
			<text x="283.82142857142856" y="392.35714285714283" style="font-family: AtlasBold; font-size: 7px;fill: rgb(13%,35%,52%); stroke:none;" transform="translate(0,784) scale(1,-1)">K6</text>
			<circle cx="372.3571428571429" cy="378.57142857142856" r="3.8" style="stroke: rgb(13%,35%,52%); stroke-linecap: butt; stroke-width: 1.2; fill: rgb(100%,100%,100%); fill-rule: evenodd;"/>
			<text x="377.3571428571429" y="371.57142857142856" style="font-family: AtlasBold; font-size: 7px;fill: rgb(13%,35%,52%); stroke:none;" transform="translate(0,743) scale(1,-1)">K7</text>
			<circle cx="413.92857142857144" cy="285.0357142857143" r="3.8" style="stroke: rgb(13%,35%,52%); stroke-linecap: butt; stroke-width: 1.2; fill: rgb(100%,100%,100%); fill-rule: evenodd;"/>
			<text x="418.92857142857144" y="278.0357142857143" style="font-family: AtlasBold; font-size: 7px;fill: rgb(13%,35%,52%); stroke:none;" transform="translate(0,556) scale(1,-1)">K8</text>
			<circle cx="351.57142857142856" cy="222.67857142857142" r="3.8" style="stroke: rgb(13%,35%,52%); stroke-linecap: butt; stroke-width: 1.2; fill: rgb(100%,100%,100%); fill-rule: evenodd;"/>
			<text x="356.57142857142856" y="215.67857142857142" style="font-family: AtlasBold; font-size: 7px;fill: rgb(13%,35%,52%); stroke:none;" transform="translate(0,431) scale(1,-1)">K9</text>
			<circle cx="237.25" cy="201.89285714285714" r="3.8" style="stroke: rgb(13%,35%,52%); stroke-linecap: butt; stroke-width: 1.2; fill: rgb(100%,100%,100%); fill-rule: evenodd;"/>
			<text x="242.25" y="194.89285714285714" style="font-family: AtlasBold; font-size: 7px;fill: rgb(13%,35%,52%); stroke:none;" transform="translate(0,389) scale(1,-1)">K10</text>
			<circle cx="310.0" cy="129.14285714285714" r="2.1" style="stroke: rgb(13%,35%,52%); stroke-linecap: butt; stroke-width: 1.2; fill: rgb(100%,100%,100%); fill-rule: evenodd;"/>
			<circle cx="206.07142857142858" cy="243.4642857142857" r="2.1" style="stroke: rgb(13%,35%,52%); stroke-linecap: butt; stroke-width: 1.2; fill: rgb(100%,100%,100%); fill-rule: evenodd;"/>
			<circle cx="310.0" cy="305.82142857142856" r="2.1" style="stroke: rgb(13%,35%,52%); stroke-linecap: butt; stroke-width: 1.2; fill: rgb(100%,100%,100%); fill-rule: evenodd;"/>
			<circle cx="361.96428571428567" cy="181.10714285714286" r="2.1" style="stroke: rgb(13%,35%,52%); stroke-linecap: butt; stroke-width: 1.2; fill: rgb(100%,100%,100%); fill-rule: evenodd;"/>
			<circle cx="174.89285714285717" cy="264.25" r="2.1" style="stroke: rgb(13%,35%,52%); stroke-linecap: butt; stroke-width: 1.2; fill: rgb(100%,100%,100%); fill-rule: evenodd;"/>
			<circle cx="310.0" cy="285.0357142857143" r="2.1" style="stroke: rgb(13%,35%,52%); stroke-linecap: butt; stroke-width: 1.2; fill: rgb(100%,100%,100%); fill-rule: evenodd;"/>
			<circle cx="174.89285714285717" cy="305.82142857142856" r="2.1" style="stroke: rgb(13%,35%,52%); stroke-linecap: butt; stroke-width: 1.2; fill: rgb(100%,100%,100%); fill-rule: evenodd;"/>
			<circle cx="174.89285714285717" cy="347.3928571428571" r="2.1" style="stroke: rgb(13%,35%,52%); stroke-linecap: butt; stroke-width: 1.2; fill: rgb(100%,100%,100%); fill-rule: evenodd;"/>
			<circle cx="310.0" cy="420.1428571428571" r="2.1" style="stroke: rgb(13%,35%,52%); stroke-linecap: butt; stroke-width: 1.2; fill: rgb(100%,100%,100%); fill-rule: evenodd;"/>
			<circle cx="361.96428571428567" cy="440.9285714285714" r="2.1" style="stroke: rgb(13%,35%,52%); stroke-linecap: butt; stroke-width: 1.2; fill: rgb(100%,100%,100%); fill-rule: evenodd;"/>
			<circle cx="413.92857142857144" cy="399.35714285714283" r="2.1" style="stroke: rgb(13%,35%,52%); stroke-linecap: butt; stroke-width: 1.2; fill: rgb(100%,100%,100%); fill-rule: evenodd;"/>
			<circle cx="403.53571428571433" cy="285.0357142857143" r="2.1" style="stroke: rgb(13%,35%,52%); stroke-linecap: butt; stroke-width: 1.2; fill: rgb(100%,100%,100%); fill-rule: evenodd;"/>
			<circle cx="237.25" cy="181.10714285714286" r="2.1" style="stroke: rgb(13%,35%,52%); stroke-linecap: butt; stroke-width: 1.2; fill: rgb(100%,100%,100%); fill-rule: evenodd;"/>
			<circle cx="258.0357142857143" cy="181.10714285714286" r="2.1" style="stroke: rgb(13%,35%,52%); stroke-linecap: butt; stroke-width: 1.2; fill: rgb(100%,100%,100%); fill-rule: evenodd;"/>
			<circle cx="278.82142857142856" cy="181.10714285714286" r="2.1" style="stroke: rgb(13%,35%,52%); stroke-linecap: butt; stroke-width: 1.2; fill: rgb(100%,100%,100%); fill-rule: evenodd;"/>
			<circle cx="299.6071428571429" cy="181.10714285714286" r="2.1" style="stroke: rgb(13%,35%,52%); stroke-linecap: butt; stroke-width: 1.2; fill: rgb(100%,100%,100%); fill-rule: evenodd;"/>
			<polygon points="310 270.25, 316 264.25, 310 258.25, 304 264.25" style="stroke: rgb(50%,35%,15%); stroke-linecap: butt; stroke-width: 1; fill: rgb(79%,56%,26%); fill-rule: evenodd;"/>
			<text x="317.0" y="271.25" style="font-family: AtlasBold; font-size: 9px;fill: rgb(43%,26%,6%); stroke:none;" transform="translate(0,542) scale(1,-1)">L1</text>
			<polygon points="174.8929 311.8214, 180.8929 305.8214, 174.8929 299.8214, 168.8929 305.8214" style="stroke: rgb(50%,35%,15%); stroke-linecap: butt; stroke-width: 1; fill: rgb(79%,56%,26%); fill-rule: evenodd;"/>
			<text x="181.89285714285717" y="312.82142857142856" style="font-family: AtlasBold; font-size: 9px;fill: rgb(43%,26%,6%); stroke:none;" transform="translate(0,625) scale(1,-1)">L2</text>
			<polygon points="413.9286 291.0357, 419.9286 285.0357, 413.9286 279.0357, 407.9286 285.0357" style="stroke: rgb(50%,35%,15%); stroke-linecap: butt; stroke-width: 1; fill: rgb(79%,56%,26%); fill-rule: evenodd;"/>
			<text x="420.92857142857144" y="292.0357142857143" style="font-family: AtlasBold; font-size: 9px;fill: rgb(43%,26%,6%); stroke:none;" transform="translate(0,584) scale(1,-1)">L3</text>
			<text x="586.71044921875" y="643" style="font-family: Atlas; font-size: 9px;fill: rgb(14%,20%,18%); stroke:none;" transform="translate(0,1286) scale(1,-1)">+Z</text>
			<path d="M 594,622 L 594,638 Z" style="stroke: rgb(14%,20%,18%); stroke-linecap: butt; stroke-width: 1;"/>
			<polygon points="594 640, 591 634, 597 634" style="stroke: none; stroke-linecap: butt; stroke-width: 1; fill: rgb(14%,20%,18%); fill-rule: evenodd;"/>
			<path d="M 60.571429,18 L 164.5,18 Z" style="stroke: rgb(14%,20%,18%); stroke-linecap: butt; stroke-width: 2;"/>
			<text x="84.70368303571429" y="5" style="font-family: Atlas; font-size: 8px;fill: rgb(14%,20%,18%); stroke:none;" transform="translate(0,10) scale(1,-1)">10m | grade 2m</text>
			<text x="492.2158203125" y="17" style="font-family: AtlasBold; font-size: 9px;fill: rgb(14%,20%,18%); stroke:none;" transform="translate(0,34) scale(1,-1)">COMPOSIÇÃO PROPOSTA</text>
		</g>
	</g>
</svg>