<svg width="620" height="670" preserveAspectRatio="xMinYMin meet" viewBox="0 0 620 670" xmlns="http://www.w3.org/2000/svg" version="1.0" fill-rule="evenodd" xmlns:xlink="http://www.w3.org/1999/xlink">
	<title>...</title>
	<desc>...</desc>
	<clipPath id="clip">
		<rect x="0" y="0" width="620" height="670"/>
	</clipPath>
	<g id="group" transform="scale(1,-1) translate(0,-670)" style="clip-path: url(#clip)">
		<g transform="">
			<rect x="0" y="0" width="620" height="670" style="stroke: none; stroke-linecap: butt; stroke-width: 1; fill: rgb(98%,97%,94%); fill-rule: evenodd;"/>
			<path d="M 40,57.357143 L 40,616.642857 Z" style="stroke: rgb(86%,87%,83%); stroke-linecap: butt; stroke-width: 0.35;"/>
			<path d="M 59.285714,57.357143 L 59.285714,616.642857 Z" style="stroke: rgb(86%,87%,83%); stroke-linecap: butt; stroke-width: 0.35;"/>
			<path d="M 78.571429,57.357143 L 78.571429,616.642857 Z" style="stroke: rgb(86%,87%,83%); stroke-linecap: butt; stroke-width: 0.35;"/>
			<path d="M 97.857143,57.357143 L 97.857143,616.642857 Z" style="stroke: rgb(86%,87%,83%); stroke-linecap: butt; stroke-width: 0.35;"/>
			<path d="M 117.142857,57.357143 L 117.142857,616.642857 Z" style="stroke: rgb(86%,87%,83%); stroke-linecap: butt; stroke-width: 0.35;"/>
			<path d="M 136.428571,57.357143 L 136.428571,616.642857 Z" style="stroke: rgb(86%,87%,83%); stroke-linecap: butt; stroke-width: 0.35;"/>
			<path d="M 155.714286,57.357143 L 155.714286,616.642857 Z" style="stroke: rgb(86%,87%,83%); stroke-linecap: butt; stroke-width: 0.35;"/>
			<path d="M 175,57.357143 L 175,616.642857 Z" style="stroke: rgb(86%,87%,83%); stroke-linecap: butt; stroke-width: 0.35;"/>
			<path d="M 194.285714,57.357143 L 194.285714,616.642857 Z" style="stroke: rgb(86%,87%,83%); stroke-linecap: butt; stroke-width: 0.35;"/>
			<path d="M 213.571429,57.357143 L 213.571429,616.642857 Z" style="stroke: rgb(86%,87%,83%); stroke-linecap: butt; stroke-width: 0.35;"/>
			<path d="M 232.857143,57.357143 L 232.857143,616.642857 Z" style="stroke: rgb(86%,87%,83%); stroke-linecap: butt; stroke-width: 0.35;"/>
			<path d="M 252.142857,57.357143 L 252.142857,616.642857 Z" style="stroke: rgb(86%,87%,83%); stroke-linecap: butt; stroke-width: 0.35;"/>
			<path d="M 271.428571,57.357143 L 271.428571,616.642857 Z" style="stroke: rgb(86%,87%,83%); stroke-linecap: butt; stroke-width: 0.35;"/>
			<path d="M 290.714286,57.357143 L 290.714286,616.642857 Z" style="stroke: rgb(86%,87%,83%); stroke-linecap: butt; stroke-width: 0.35;"/>
			<path d="M 310,57.357143 L 310,616.642857 Z" style="stroke: rgb(86%,87%,83%); stroke-linecap: butt; stroke-width: 0.35;"/>
			<path d="M 329.285714,57.357143 L 329.285714,616.642857 Z" style="stroke: rgb(86%,87%,83%); stroke-linecap: butt; stroke-width: 0.35;"/>
			<path d="M 348.571429,57.357143 L 348.571429,616.642857 Z" style="stroke: rgb(86%,87%,83%); stroke-linecap: butt; stroke-width: 0.35;"/>
			<path d="M 367.857143,57.357143 L 367.857143,616.642857 Z" style="stroke: rgb(86%,87%,83%); stroke-linecap: butt; stroke-width: 0.35;"/>
			<path d="M 387.142857,57.357143 L 387.142857,616.642857 Z" style="stroke: rgb(86%,87%,83%); stroke-linecap: butt; stroke-width: 0.35;"/>
			<path d="M 406.428571,57.357143 L 406.428571,616.642857 Z" style="stroke: rgb(86%,87%,83%); stroke-linecap: butt; stroke-width: 0.35;"/>
			<path d="M 425.714286,57.357143 L 425.714286,616.642857 Z" style="stroke: rgb(86%,87%,83%); stroke-linecap: butt; stroke-width: 0.35;"/>
			<path d="M 445,57.357143 L 445,616.642857 Z" style="stroke: rgb(86%,87%,83%); stroke-linecap: butt; stroke-width: 0.35;"/>
			<path d="M 464.285714,57.357143 L 464.285714,616.642857 Z" style="stroke: rgb(86%,87%,83%); stroke-linecap: butt; stroke-width: 0.35;"/>
			<path d="M 483.571429,57.357143 L 483.571429,616.642857 Z" style="stroke: rgb(86%,87%,83%); stroke-linecap: butt; stroke-width: 0.35;"/>
			<path d="M 502.857143,57.357143 L 502.857143,616.642857 Z" style="stroke: rgb(86%,87%,83%); stroke-linecap: butt; stroke-width: 0.35;"/>
			<path d="M 522.142857,57.357143 L 522.142857,616.642857 Z" style="stroke: rgb(86%,87%,83%); stroke-linecap: butt; stroke-width: 0.35;"/>
			<path d="M 541.428571,57.357143 L 541.428571,616.642857 Z" style="stroke: rgb(86%,87%,83%); stroke-linecap: butt; stroke-width: 0.35;"/>
			<path d="M 560.714286,57.357143 L 560.714286,616.642857 Z" style="stroke: rgb(86%,87%,83%); stroke-linecap: butt; stroke-width: 0.35;"/>
			<path d="M 580,57.357143 L 580,616.642857 Z" style="stroke: rgb(86%,87%,83%); stroke-linecap: butt; stroke-width: 0.35;"/>
			<path d="M 40,57.357143 L 580,57.357143 Z" style="stroke: rgb(86%,87%,83%); stroke-linecap: butt; stroke-width: 0.35;"/>
			<path d="M 40,76.642857 L 580,76.642857 Z" style="stroke: rgb(86%,87%,83%); stroke-linecap: butt; stroke-width: 0.35;"/>
			<path d="M 40,95.928571 L 580,95.928571 Z" style="stroke: rgb(86%,87%,83%); stroke-linecap: butt; stroke-width: 0.35;"/>
			<path d="M 40,115.214286 L 580,115.214286 Z" style="stroke: rgb(86%,87%,83%); stroke-linecap: butt; stroke-width: 0.35;"/>
			<path d="M 40,134.5 L 580,134.5 Z" style="stroke: rgb(86%,87%,83%); stroke-linecap: butt; stroke-width: 0.35;"/>
			<path d="M 40,153.785714 L 580,153.785714 Z" style="stroke: rgb(86%,87%,83%); stroke-linecap: butt; stroke-width: 0.35;"/>
			<path d="M 40,173.071429 L 580,173.071429 Z" style="stroke: rgb(86%,87%,83%); stroke-linecap: butt; stroke-width: 0.35;"/>
			<path d="M 40,192.357143 L 580,192.357143 Z" style="stroke: rgb(86%,87%,83%); stroke-linecap: butt; stroke-width: 0.35;"/>
			<path d="M 40,211.642857 L 580,211.642857 Z" style="stroke: rgb(86%,87%,83%); stroke-linecap: butt; stroke-width: 0.35;"/>
			<path d="M 40,230.928571 L 580,230.928571 Z" style="stroke: rgb(86%,87%,83%); stroke-linecap: butt; stroke-width: 0.35;"/>
			<path d="M 40,250.214286 L 580,250.214286 Z" style="stroke: rgb(86%,87%,83%); stroke-linecap: butt; stroke-width: 0.35;"/>
			<path d="M 40,269.5 L 580,269.5 Z" style="stroke: rgb(86%,87%,83%); stroke-linecap: butt; stroke-width: 0.35;"/>
			<path d="M 40,288.785714 L 580,288.785714 Z" style="stroke: rgb(86%,87%,83%); stroke-linecap: butt; stroke-width: 0.35;"/>
			<path d="M 40,308.071429 L 580,308.071429 Z" style="stroke: rgb(86%,87%,83%); stroke-linecap: butt; stroke-width: 0.35;"/>
			<path d="M 40,327.357143 L 580,327.357143 Z" style="stroke: rgb(86%,87%,83%); stroke-linecap: butt; stroke-width: 0.35;"/>
			<path d="M 40,346.642857 L 580,346.642857 Z" style="stroke: rgb(86%,87%,83%); stroke-linecap: butt; stroke-width: 0.35;"/>
			<path d="M 40,365.928571 L 580,365.928571 Z" style="stroke: rgb(86%,87%,83%); stroke-linecap: butt; stroke-width: 0.35;"/>
			<path d="M 40,385.214286 L 580,385.214286 Z" style="stroke: rgb(86%,87%,83%); stroke-linecap: butt; stroke-width: 0.35;"/>
			<path d="M 40,404.5 L 580,404.5 Z" style="stroke: rgb(86%,87%,83%); stroke-linecap: butt; stroke-width: 0.35;"/>
			<path d="M 40,423.785714 L 580,423.785714 Z" style="stroke: rgb(86%,87%,83%); stroke-linecap: butt; stroke-width: 0.35;"/>
			<path d="M 40,443.071429 L 580,443.071429 Z" style="stroke: rgb(86%,87%,83%); stroke-linecap: butt; stroke-width: 0.35;"/>
			<path d="M 40,462.357143 L 580,462.357143 Z" style="stroke: rgb(86%,87%,83%); stroke-linecap: butt; stroke-width: 0.35;"/>
			<path d="M 40,481.642857 L 580,481.642857 Z" style="stroke: rgb(86%,87%,83%); stroke-linecap: butt; stroke-width: 0.35;"/>
			<path d="M 40,500.928571 L 580,500.928571 Z" style="stroke: rgb(86%,87%,83%); stroke-linecap: butt; stroke-width: 0.35;"/>
			<path d="M 40,520.214286 L 580,520.214286 Z" style="stroke: rgb(86%,87%,83%); stroke-linecap: butt; stroke-width: 0.35;"/>
			<path d="M 40,539.5 L 580,539.5 Z" style="stroke: rgb(86%,87%,83%); stroke-linecap: butt; stroke-width: 0.35;"/>
			<path d="M 40,558.785714 L 580,558.785714 Z" style="stroke: rgb(86%,87%,83%); stroke-linecap: butt; stroke-width: 0.35;"/>
			<path d="M 40,578.071429 L 580,578.071429 Z" style="stroke: rgb(86%,87%,83%); stroke-linecap: butt; stroke-width: 0.35;"/>
			<path d="M 40,597.357143 L 580,597.357143 Z" style="stroke: rgb(86%,87%,83%); stroke-linecap: butt; stroke-width: 0.35;"/>
			<path d="M 40,616.642857 L 580,616.642857 Z" style="stroke: rgb(86%,87%,83%); stroke-linecap: butt; stroke-width: 0.35;"/>
			<rect x="40.0" y="57.35714285714289" width="540.0" height="559.2857142857142" style="stroke: rgb(66%,71%,67%); stroke-linecap: butt; stroke-width: 0.8; fill: none; fill-rule: evenodd;"/>
			<text x="54.112618582589285" y="43.35714285714289" style="font-family: Atlas; font-size: 7px;fill: rgb(14%,20%,18%); stroke:none;" transform="translate(0,86) scale(1,-1)">-30</text>
			<text x="111.96976143973214" y="43.35714285714289" style="font-family: Atlas; font-size: 7px;fill: rgb(14%,20%,18%); stroke:none;" transform="translate(0,86) scale(1,-1)">-24</text>
			<text x="169.826904296875" y="43.35714285714289" style="font-family: Atlas; font-size: 7px;fill: rgb(14%,20%,18%); stroke:none;" transform="translate(0,86) scale(1,-1)">-18</text>
			<text x="227.68404715401783" y="43.35714285714289" style="font-family: Atlas; font-size: 7px;fill: rgb(14%,20%,18%); stroke:none;" transform="translate(0,86) scale(1,-1)">-12</text>
			<text x="287.42790876116067" y="43.35714285714289" style="font-family: Atlas; font-size: 7px;fill: rgb(14%,20%,18%); stroke:none;" transform="translate(0,86) scale(1,-1)">-6</text>
			<text x="346.68470982142856" y="43.35714285714289" style="font-family: Atlas; font-size: 7px;fill: rgb(14%,20%,18%); stroke:none;" transform="translate(0,86) scale(1,-1)">0</text>
			<text x="404.5418526785714" y="43.35714285714289" style="font-family: Atlas; font-size: 7px;fill: rgb(14%,20%,18%); stroke:none;" transform="translate(0,86) scale(1,-1)">6</text>
			<text x="460.5122767857143" y="43.35714285714289" style="font-family: Atlas; font-size: 7px;fill: rgb(14%,20%,18%); stroke:none;" transform="translate(0,86) scale(1,-1)">12</text>
			<text x="518.3694196428571" y="43.35714285714289" style="font-family: Atlas; font-size: 7px;fill: rgb(14%,20%,18%); stroke:none;" transform="translate(0,86) scale(1,-1)">18</text>
			<text x="576.2265625" y="43.35714285714289" style="font-family: Atlas; font-size: 7px;fill: rgb(14%,20%,18%); stroke:none;" transform="translate(0,86) scale(1,-1)">24</text>
			<text x="22.65380859375" y="74.64285714285717" style="font-family: Atlas; font-size: 7px;fill: rgb(14%,20%,18%); stroke:none;" transform="translate(0,149) scale(1,-1)">-18</text>
			<text x="22.65380859375" y="132.50000000000003" style="font-family: Atlas; font-size: 7px;fill: rgb(14%,20%,18%); stroke:none;" transform="translate(0,265) scale(1,-1)">-12</text>
			<text x="26.42724609375" y="190.3571428571429" style="font-family: Atlas; font-size: 7px;fill: rgb(14%,20%,18%); stroke:none;" transform="translate(0,380) scale(1,-1)">-6</text>
			<text x="29.2265625" y="248.21428571428572" style="font-family: Atlas; font-size: 7px;fill: rgb(14%,20%,18%); stroke:none;" transform="translate(0,496) scale(1,-1)">0</text>
			<text x="29.2265625" y="306.07142857142856" style="font-family: Atlas; font-size: 7px;fill: rgb(14%,20%,18%); stroke:none;" transform="translate(0,612) scale(1,-1)">6</text>
			<text x="25.453125" y="363.92857142857144" style="font-family: Atlas; font-size: 7px;fill: rgb(14%,20%,18%); stroke:none;" transform="translate(0,727) scale(1,-1)">12</text>
			<text x="25.453125" y="421.7857142857143" style="font-family: Atlas; font-size: 7px;fill: rgb(14%,20%,18%); stroke:none;" transform="translate(0,843) scale(1,-1)">18</text>
			<text x="25.453125" y="479.64285714285717" style="font-family: Atlas; font-size: 7px;fill: rgb(14%,20%,18%); stroke:none;" transform="translate(0,959) scale(1,-1)">24</text>
			<text x="25.453125" y="537.5" style="font-family: Atlas; font-size: 7px;fill: rgb(14%,20%,18%); stroke:none;" transform="translate(0,1075) scale(1,-1)">30</text>
			<text x="25.453125" y="595.3571428571429" style="font-family: Atlas; font-size: 7px;fill: rgb(14%,20%,18%); stroke:none;" transform="translate(0,1190) scale(1,-1)">36</text>
			<rect x="281.07142857142856" y="134.50000000000003" width="125.35714285714283" height="144.64285714285714" style="stroke: rgb(49%,55%,51%); stroke-linecap: butt; stroke-width: 0.65; fill: rgb(81%,84%,80%); fill-rule: evenodd;"/>
			<text x="339.021484375" y="208.82142857142858" style="font-family: AtlasBold; font-size: 8px;fill: rgb(14%,20%,18%); stroke:none;" transform="translate(0,417) scale(1,-1)">Z1</text>
			<rect x="136.42857142857142" y="317.7142857142857" width="77.14285714285714" height="96.42857142857139" style="stroke: rgb(49%,55%,51%); stroke-linecap: butt; stroke-width: 0.65; fill: rgb(65%,71%,74%); fill-rule: evenodd;"/>
			<text x="170.271484375" y="367.92857142857144" style="font-family: AtlasBold; font-size: 8px;fill: rgb(14%,20%,18%); stroke:none;" transform="translate(0,735) scale(1,-1)">Z2</text>
			<rect x="231.8928571428571" y="326.39285714285717" width="59.78571428571428" height="136.92857142857144" style="stroke: rgb(49%,55%,51%); stroke-linecap: butt; stroke-width: 0.65; fill: rgb(70%,85%,87%); fill-rule: evenodd;"/>
			<text x="257.0571986607143" y="396.8571428571429" style="font-family: AtlasBold; font-size: 8px;fill: rgb(14%,20%,18%); stroke:none;" transform="translate(0,793) scale(1,-1)">Z3</text>
			<rect x="310.0" y="365.92857142857144" width="86.78571428571428" height="96.42857142857144" style="stroke: rgb(49%,55%,51%); stroke-linecap: butt; stroke-width: 0.65; fill: rgb(83%,89%,79%); fill-rule: evenodd;"/>
			<text x="348.6643415178571" y="416.14285714285717" style="font-family: AtlasBold; font-size: 8px;fill: rgb(14%,20%,18%); stroke:none;" transform="translate(0,832) scale(1,-1)">Z4</text>
			<rect x="493.21428571428567" y="298.42857142857144" width="67.5" height="96.42857142857144" style="stroke: rgb(49%,55%,51%); stroke-linecap: butt; stroke-width: 0.65; fill: rgb(65%,71%,74%); fill-rule: evenodd;"/>
			<text x="522.2357700892857" y="348.64285714285717" style="font-family: AtlasBold; font-size: 8px;fill: rgb(14%,20%,18%); stroke:none;" transform="translate(0,697) scale(1,-1)">Z5</text>
			<rect x="483.57142857142856" y="423.7857142857143" width="77.14285714285711" height="77.14285714285717" style="stroke: rgb(49%,55%,51%); stroke-linecap: butt; stroke-width: 0.65; fill: rgb(83%,89%,79%); fill-rule: evenodd;"/>
			<text x="517.4143415178571" y="464.3571428571429" style="font-family: AtlasBold; font-size: 8px;fill: rgb(14%,20%,18%); stroke:none;" transform="translate(0,928) scale(1,-1)">Z6</text>
			<rect x="435.35714285714283" y="240.57142857142858" width="115.71428571428572" height="57.85714285714286" style="stroke: rgb(49%,55%,51%); stroke-linecap: butt; stroke-width: 0.65; fill: rgb(83%,89%,79%); fill-rule: evenodd;"/>
			<text x="488.48577008928567" y="271.5" style="font-family: AtlasBold; font-size: 8px;fill: rgb(14%,20%,18%); stroke:none;" transform="translate(0,543) scale(1,-1)">Z7</text>
			<rect x="319.6428571428571" y="472.0" width="77.14285714285711" height="115.71428571428567" style="stroke: rgb(49%,55%,51%); stroke-linecap: butt; stroke-width: 0.65; fill: rgb(83%,89%,79%); fill-rule: evenodd;"/>
			<text x="353.4857700892857" y="531.8571428571429" style="font-family: AtlasBold; font-size: 8px;fill: rgb(14%,20%,18%); stroke:none;" transform="translate(0,1063) scale(1,-1)">Z8</text>
			<rect x="49.64285714285714" y="95.92857142857146" width="67.5" height="520.7142857142857" style="stroke: rgb(49%,55%,51%); stroke-linecap: butt; stroke-width: 0.65; fill: rgb(70%,85%,87%); fill-rule: evenodd;"/>
			<text x="78.66434151785714" y="358.2857142857143" style="font-family: AtlasBold; font-size: 8px;fill: rgb(14%,20%,18%); stroke:none;" transform="translate(0,716) scale(1,-1)">Z9</text>
			<rect x="184.64285714285714" y="279.14285714285717" width="57.85714285714286" height="38.571428571428555" style="stroke: rgb(49%,55%,51%); stroke-linecap: butt; stroke-width: 0.65; fill: rgb(83%,89%,79%); fill-rule: evenodd;"/>
			<text x="206.54213169642856" y="300.42857142857144" style="font-family: AtlasBold; font-size: 8px;fill: rgb(14%,20%,18%); stroke:none;" transform="translate(0,600) scale(1,-1)">Z10</text>
			<rect x="136.42857142857142" y="327.3571428571429" width="48.214285714285694" height="77.14285714285711" style="stroke: rgb(20%,30%,35%); stroke-linecap: butt; stroke-width: 1.5; fill: rgb(38%,47%,52%); fill-rule: evenodd; stroke-dasharray: 4, 2;"/>
			<text x="149.39716448102678" y="358.92857142857144" style="font-family: Atlas; font-size: 6.5px;fill: rgb(14%,24%,28%); stroke:none;" transform="translate(0,717) scale(1,-1)">base Z2</text>
			<rect x="496.10714285714283" y="308.07142857142856" width="64.60714285714283" height="77.14285714285711" style="stroke: rgb(20%,30%,35%); stroke-linecap: butt; stroke-width: 1.5; fill: rgb(38%,47%,52%); fill-rule: evenodd; stroke-dasharray: 4, 2;"/>
			<text x="517.2721644810268" y="339.64285714285717" style="font-family: Atlas; font-size: 6.5px;fill: rgb(14%,24%,28%); stroke:none;" transform="translate(0,679) scale(1,-1)">base Z5</text>
			<polyline points="348.5714 115.2143, 319.6429 192.3571" style="stroke: rgb(44%,35%,19%); stroke-linecap: round; stroke-width: 34.714285714285715; fill: None; fill-rule: evenodd;"/>
			<polyline points="348.5714 115.2143, 319.6429 192.3571" style="stroke: rgb(44%,35%,19%); stroke-linecap: butt; stroke-width: 1; fill: None; fill-rule: evenodd;"/>
			<polyline points="319.6429 192.3571, 319.6429 250.2143" style="stroke: rgb(44%,35%,19%); stroke-linecap: round; stroke-width: 34.714285714285715; fill: None; fill-rule: evenodd;"/>
			<polyline points="319.6429 192.3571, 319.6429 250.2143" style="stroke: rgb(44%,35%,19%); stroke-linecap: butt; stroke-width: 1; fill: None; fill-rule: evenodd;"/>
			<polyline points="319.6429 250.2143, 232.8571 298.4286" style="stroke: rgb(44%,35%,19%); stroke-linecap: round; stroke-width: 34.714285714285715; fill: None; fill-rule: evenodd;"/>
			<polyline points="319.6429 250.2143, 232.8571 298.4286" style="stroke: rgb(44%,35%,19%); stroke-linecap: butt; stroke-width: 1; fill: None; fill-rule: evenodd;"/>
			<polyline points="232.8571 298.4286, 208.75 298.4286" style="stroke: rgb(44%,35%,19%); stroke-linecap: round; stroke-width: 34.714285714285715; fill: None; fill-rule: evenodd;"/>
			<polyline points="232.8571 298.4286, 208.75 298.4286" style="stroke: rgb(44%,35%,19%); stroke-linecap: butt; stroke-width: 1; fill: None; fill-rule: evenodd;"/>
			<polyline points="208.75 298.4286, 208.75 496.1071" style="stroke: rgb(44%,35%,19%); stroke-linecap: round; stroke-width: 34.714285714285715; fill: None; fill-rule: evenodd;"/>
			<polyline points="208.75 298.4286, 208.75 496.1071" style="stroke: rgb(44%,35%,19%); stroke-linecap: butt; stroke-width: 1; fill: None; fill-rule: evenodd;"/>
			<polyline points="208.75 496.1071, 319.6429 491.2857" style="stroke: rgb(44%,35%,19%); stroke-linecap: round; stroke-width: 34.714285714285715; fill: None; fill-rule: evenodd;"/>
			<polyline points="208.75 496.1071, 319.6429 491.2857" style="stroke: rgb(44%,35%,19%); stroke-linecap: butt; stroke-width: 1; fill: None; fill-rule: evenodd;"/>
			<polyline points="319.6429 491.2857, 348.5714 558.7857" style="stroke: rgb(44%,35%,19%); stroke-linecap: round; stroke-width: 34.714285714285715; fill: None; fill-rule: evenodd;"/>
			<polyline points="319.6429 491.2857, 348.5714 558.7857" style="stroke: rgb(44%,35%,19%); stroke-linecap: butt; stroke-width: 1; fill: None; fill-rule: evenodd;"/>
			<text x="236.85714285714283" y="303.42857142857144" style="font-family: AtlasBold; font-size: 7px;fill: rgb(44%,35%,19%); stroke:none;" transform="translate(0,606) scale(1,-1)">A1</text>
			<polyline points="319.6429 250.2143, 329.2857 317.7143" style="stroke: rgb(44%,35%,19%); stroke-linecap: round; stroke-width: 34.714285714285715; fill: None; fill-rule: evenodd;"/>
			<polyline points="319.6429 250.2143, 329.2857 317.7143" style="stroke: rgb(44%,35%,19%); stroke-linecap: butt; stroke-width: 1; fill: None; fill-rule: evenodd;"/>
			<polyline points="329.2857 317.7143, 348.5714 394.8571" style="stroke: rgb(44%,35%,19%); stroke-linecap: round; stroke-width: 34.714285714285715; fill: None; fill-rule: evenodd;"/>
			<polyline points="329.2857 317.7143, 348.5714 394.8571" style="stroke: rgb(44%,35%,19%); stroke-linecap: butt; stroke-width: 1; fill: None; fill-rule: evenodd;"/>
			<polyline points="348.5714 394.8571, 348.5714 481.6429" style="stroke: rgb(44%,35%,19%); stroke-linecap: round; stroke-width: 34.714285714285715; fill: None; fill-rule: evenodd;"/>
			<polyline points="348.5714 394.8571, 348.5714 481.6429" style="stroke: rgb(44%,35%,19%); stroke-linecap: butt; stroke-width: 1; fill: None; fill-rule: evenodd;"/>
			<polyline points="348.5714 481.6429, 348.5714 558.7857" style="stroke: rgb(44%,35%,19%); stroke-linecap: round; stroke-width: 34.714285714285715; fill: None; fill-rule: evenodd;"/>
			<polyline points="348.5714 481.6429, 348.5714 558.7857" style="stroke: rgb(44%,35%,19%); stroke-linecap: butt; stroke-width: 1; fill: None; fill-rule: evenodd;"/>
			<text x="333.2857142857143" y="322.7142857142857" style="font-family: AtlasBold; font-size: 7px;fill: rgb(44%,35%,19%); stroke:none;" transform="translate(0,645) scale(1,-1)">A2</text>
			<polyline points="348.5714 279.1429, 377.5 279.1429" style="stroke: rgb(7%,41%,47%); stroke-linecap: round; stroke-width: 31.82142857142857; fill: None; fill-rule: evenodd;"/>
			<polyline points="348.5714 279.1429, 377.5 279.1429" style="stroke: rgb(7%,41%,47%); stroke-linecap: butt; stroke-width: 1; fill: None; fill-rule: evenodd;"/>
			<polyline points="377.5 279.1429, 464.2857 279.1429" style="stroke: rgb(7%,41%,47%); stroke-linecap: round; stroke-width: 31.82142857142857; fill: None; fill-rule: evenodd;"/>
			<polyline points="377.5 279.1429, 464.2857 279.1429" style="stroke: rgb(7%,41%,47%); stroke-linecap: butt; stroke-width: 1; fill: None; fill-rule: evenodd;"/>
			<polyline points="464.2857 279.1429, 473.9286 327.3571" style="stroke: rgb(7%,41%,47%); stroke-linecap: round; stroke-width: 31.82142857142857; fill: None; fill-rule: evenodd;"/>
			<polyline points="464.2857 279.1429, 473.9286 327.3571" style="stroke: rgb(7%,41%,47%); stroke-linecap: butt; stroke-width: 1; fill: None; fill-rule: evenodd;"/>
			<polyline points="473.9286 327.3571, 464.2857 385.2143" style="stroke: rgb(7%,41%,47%); stroke-linecap: round; stroke-width: 31.82142857142857; fill: None; fill-rule: evenodd;"/>
			<polyline points="473.9286 327.3571, 464.2857 385.2143" style="stroke: rgb(7%,41%,47%); stroke-linecap: butt; stroke-width: 1; fill: None; fill-rule: evenodd;"/>
			<polyline points="464.2857 385.2143, 464.2857 443.0714" style="stroke: rgb(7%,41%,47%); stroke-linecap: round; stroke-width: 31.82142857142857; fill: None; fill-rule: evenodd;"/>
			<polyline points="464.2857 385.2143, 464.2857 443.0714" style="stroke: rgb(7%,41%,47%); stroke-linecap: butt; stroke-width: 1; fill: None; fill-rule: evenodd;"/>
			<polyline points="464.2857 443.0714, 425.7143 481.6429" style="stroke: rgb(7%,41%,47%); stroke-linecap: round; stroke-width: 31.82142857142857; fill: None; fill-rule: evenodd;"/>
			<polyline points="464.2857 443.0714, 425.7143 481.6429" style="stroke: rgb(7%,41%,47%); stroke-linecap: butt; stroke-width: 1; fill: None; fill-rule: evenodd;"/>
			<polyline points="425.7143 481.6429, 348.5714 481.6429" style="stroke: rgb(7%,41%,47%); stroke-linecap: round; stroke-width: 31.82142857142857; fill: None; fill-rule: evenodd;"/>
			<polyline points="425.7143 481.6429, 348.5714 481.6429" style="stroke: rgb(7%,41%,47%); stroke-linecap: butt; stroke-width: 1; fill: None; fill-rule: evenodd;"/>
			<text x="477.9285714285714" y="332.3571428571429" style="font-family: AtlasBold; font-size: 7px;fill: rgb(7%,41%,47%); stroke:none;" transform="translate(0,664) scale(1,-1)">A3</text>
			<polyline points="232.8571 298.4286, 252.1429 279.1429" style="stroke: rgb(7%,41%,47%); stroke-linecap: round; stroke-width: 30.857142857142858; fill: None; fill-rule: evenodd;"/>
			<polyline points="232.8571 298.4286, 252.1429 279.1429" style="stroke: rgb(7%,41%,47%); stroke-linecap: butt; stroke-width: 1; fill: None; fill-rule: evenodd;"/>
			<polyline points="252.1429 279.1429, 261.7857 279.1429" style="stroke: rgb(7%,41%,47%); stroke-linecap: round; stroke-width: 30.857142857142858; fill: None; fill-rule: evenodd;"/>
			<polyline points="252.1429 279.1429, 261.7857 279.1429" style="stroke: rgb(7%,41%,47%); stroke-linecap: butt; stroke-width: 1; fill: None; fill-rule: evenodd;"/>
			<polyline points="261.7857 279.1429, 319.6429 250.2143" style="stroke: rgb(7%,41%,47%); stroke-linecap: round; stroke-width: 30.857142857142858; fill: None; fill-rule: evenodd;"/>
			<polyline points="261.7857 279.1429, 319.6429 250.2143" style="stroke: rgb(7%,41%,47%); stroke-linecap: butt; stroke-width: 1; fill: None; fill-rule: evenodd;"/>
			<polyline points="319.6429 250.2143, 348.5714 279.1429" style="stroke: rgb(7%,41%,47%); stroke-linecap: round; stroke-width: 30.857142857142858; fill: None; fill-rule: evenodd;"/>
			<polyline points="319.6429 250.2143, 348.5714 279.1429" style="stroke: rgb(7%,41%,47%); stroke-linecap: butt; stroke-width: 1; fill: None; fill-rule: evenodd;"/>
			<polyline points="348.5714 279.1429, 435.3571 279.1429" style="stroke: rgb(7%,41%,47%); stroke-linecap: round; stroke-width: 30.857142857142858; fill: None; fill-rule: evenodd;"/>
			<polyline points="348.5714 279.1429, 435.3571 279.1429" style="stroke: rgb(7%,41%,47%); stroke-linecap: butt; stroke-width: 1; fill: None; fill-rule: evenodd;"/>
			<text x="265.7857142857143" y="284.14285714285717" style="font-family: AtlasBold; font-size: 7px;fill: rgb(7%,41%,47%); stroke:none;" transform="translate(0,568) scale(1,-1)">A4</text>
			<circle cx="348.57142857142856" cy="115.21428571428575" r="3.8" style="stroke: rgb(13%,35%,52%); stroke-linecap: butt; stroke-width: 1.2; fill: rgb(100%,100%,100%); fill-rule: evenodd;"/>
			<text x="353.57142857142856" y="108.21428571428575" style="font-family: AtlasBold; font-size: 7px;fill: rgb(13%,35%,52%); stroke:none;" transform="translate(0,216) scale(1,-1)">K1</text>
			<circle cx="348.57142857142856" cy="558.7857142857142" r="3.8" style="stroke: rgb(13%,35%,52%); stroke-linecap: butt; stroke-width: 1.2; fill: rgb(100%,100%,100%); fill-rule: evenodd;"/>
			<text x="353.57142857142856" y="551.7857142857142" style="font-family: AtlasBold; font-size: 7px;fill: rgb(13%,35%,52%); stroke:none;" transform="translate(0,1103) scale(1,-1)">K2</text>
			<circle cx="310.0" cy="173.0714285714286" r="3.8" style="stroke: rgb(13%,35%,52%); stroke-linecap: butt; stroke-width: 1.2; fill: rgb(100%,100%,100%); fill-rule: evenodd;"/>
			<text x="315.0" y="166.0714285714286" style="font-family: AtlasBold; font-size: 7px;fill: rgb(13%,35%,52%); stroke:none;" transform="translate(0,332) scale(1,-1)">K3</text>
			<circle cx="319.6428571428571" cy="250.21428571428572" r="3.8" style="stroke: rgb(13%,35%,52%); stroke-linecap: butt; stroke-width: 1.2; fill: rgb(100%,100%,100%); fill-rule: evenodd;"/>
			<text x="324.6428571428571" y="243.21428571428572" style="font-family: AtlasBold; font-size: 7px;fill: rgb(13%,35%,52%); stroke:none;" transform="translate(0,486) scale(1,-1)">K4</text>
			<circle cx="464.2857142857143" cy="443.07142857142856" r="3.8" style="stroke: rgb(13%,35%,52%); stroke-linecap: butt; stroke-width: 1.2; fill: rgb(100%,100%,100%); fill-rule: evenodd;"/>
			<text x="469.2857142857143" y="436.07142857142856" style="font-family: AtlasBold; font-size: 7px;fill: rgb(13%,35%,52%); stroke:none;" transform="translate(0,872) scale(1,-1)">K5</text>
			<circle cx="232.85714285714283" cy="298.42857142857144" r="2.1" style="stroke: rgb(13%,35%,52%); stroke-linecap: butt; stroke-width: 1.2; fill: rgb(100%,100%,100%); fill-rule: evenodd;"/>
			<circle cx="348.57142857142856" cy="394.8571428571429" r="2.1" style="stroke: rgb(13%,35%,52%); stroke-linecap: butt; stroke-width: 1.2; fill: rgb(100%,100%,100%); fill-rule: evenodd;"/>
			<circle cx="473.9285714285714" cy="327.3571428571429" r="2.1" style="stroke: rgb(13%,35%,52%); stroke-linecap: butt; stroke-width: 1.2; fill: rgb(100%,100%,100%); fill-rule: evenodd;"/>
			<circle cx="319.6428571428571" cy="250.21428571428572" r="2.1" style="stroke: rgb(13%,35%,52%); stroke-linecap: butt; stroke-width: 1.2; fill: rgb(100%,100%,100%); fill-rule: evenodd;"/>
			<circle cx="464.2857142857143" cy="443.07142857142856" r="2.1" style="stroke: rgb(13%,35%,52%); stroke-linecap: butt; stroke-width: 1.2; fill: rgb(100%,100%,100%); fill-rule: evenodd;"/>
			<circle cx="464.2857142857143" cy="443.07142857142856" r="2.1" style="stroke: rgb(13%,35%,52%); stroke-linecap: butt; stroke-width: 1.2; fill: rgb(100%,100%,100%); fill-rule: evenodd;"/>
			<circle cx="261.7857142857143" cy="279.14285714285717" r="2.1" style="stroke: rgb(13%,35%,52%); stroke-linecap: butt; stroke-width: 1.2; fill: rgb(100%,100%,100%); fill-rule: evenodd;"/>
			<circle cx="348.57142857142856" cy="279.14285714285717" r="2.1" style="stroke: rgb(13%,35%,52%); stroke-linecap: butt; stroke-width: 1.2; fill: rgb(100%,100%,100%); fill-rule: evenodd;"/>
			<circle cx="435.35714285714283" cy="279.14285714285717" r="2.1" style="stroke: rgb(13%,35%,52%); stroke-linecap: butt; stroke-width: 1.2; fill: rgb(100%,100%,100%); fill-rule: evenodd;"/>
			<circle cx="261.7857142857143" cy="337.0" r="2.1" style="stroke: rgb(13%,35%,52%); stroke-linecap: butt; stroke-width: 1.2; fill: rgb(100%,100%,100%); fill-rule: evenodd;"/>
			<circle cx="232.85714285714283" cy="288.78571428571433" r="2.1" style="stroke: rgb(13%,35%,52%); stroke-linecap: butt; stroke-width: 1.2; fill: rgb(100%,100%,100%); fill-rule: evenodd;"/>
			<circle cx="464.2857142857143" cy="346.64285714285717" r="2.1" style="stroke: rgb(13%,35%,52%); stroke-linecap: butt; stroke-width: 1.2; fill: rgb(100%,100%,100%); fill-rule: evenodd;"/>
			<circle cx="464.2857142857143" cy="462.3571428571429" r="2.1" style="stroke: rgb(13%,35%,52%); stroke-linecap: butt; stroke-width: 1.2; fill: rgb(100%,100%,100%); fill-rule: evenodd;"/>
			<circle cx="232.85714285714283" cy="288.78571428571433" r="2.1" style="stroke: rgb(13%,35%,52%); stroke-linecap: butt; stroke-width: 1.2; fill: rgb(100%,100%,100%); fill-rule: evenodd;"/>
			<polygon points="184.6429 343, 190.6429 337, 184.6429 331, 178.6429 337" style="stroke: rgb(50%,35%,15%); stroke-linecap: butt; stroke-width: 1; fill: rgb(79%,56%,26%); fill-rule: evenodd;"/>
			<text x="191.64285714285714" y="344.0" style="font-family: AtlasBold; font-size: 9px;fill: rgb(43%,26%,6%); stroke:none;" transform="translate(0,688) scale(1,-1)">L1</text>
			<polygon points="367.8571 439.4286, 373.8571 433.4286, 367.8571 427.4286, 361.8571 433.4286" style="stroke: rgb(50%,35%,15%); stroke-linecap: butt; stroke-width: 1; fill: rgb(79%,56%,26%); fill-rule: evenodd;"/>
			<text x="374.85714285714283" y="440.42857142857144" style="font-family: AtlasBold; font-size: 9px;fill: rgb(43%,26%,6%); stroke:none;" transform="translate(0,880) scale(1,-1)">L2</text>
			<polygon points="488.3929 458.7143, 494.3929 452.7143, 488.3929 446.7143, 482.3929 452.7143" style="stroke: rgb(50%,35%,15%); stroke-linecap: butt; stroke-width: 1; fill: rgb(79%,56%,26%); fill-rule: evenodd;"/>
			<text x="495.3928571428571" y="459.7142857142857" style="font-family: AtlasBold; font-size: 9px;fill: rgb(43%,26%,6%); stroke:none;" transform="translate(0,919) scale(1,-1)">L3</text>
			<text x="586.71044921875" y="643" style="font-family: Atlas; font-size: 9px;fill: rgb(14%,20%,18%); stroke:none;" transform="translate(0,1286) scale(1,-1)">+Z</text>
			<path d="M 594,622 L 594,638 Z" style="stroke: rgb(14%,20%,18%); stroke-linecap: butt; stroke-width: 1;"/>
			<polygon points="594 640, 591 634, 597 634" style="stroke: none; stroke-linecap: butt; stroke-width: 1; fill: rgb(14%,20%,18%); fill-rule: evenodd;"/>
			<path d="M 40,18 L 136.428571,18 Z" style="stroke: rgb(14%,20%,18%); stroke-linecap: butt; stroke-width: 2;"/>
			<text x="60.38225446428571" y="5" style="font-family: Atlas; font-size: 8px;fill: rgb(14%,20%,18%); stroke:none;" transform="translate(0,10) scale(1,-1)">10m | grade 2m</text>
			<text x="492.2158203125" y="17" style="font-family: AtlasBold; font-size: 9px;fill: rgb(14%,20%,18%); stroke:none;" transform="translate(0,34) scale(1,-1)">COMPOSIÇÃO PROPOSTA</text>
		</g>
	</g>
</svg>