<svg width="620" height="670" preserveAspectRatio="xMinYMin meet" viewBox="0 0 620 670" xmlns="http://www.w3.org/2000/svg" version="1.0" fill-rule="evenodd" xmlns:xlink="http://www.w3.org/1999/xlink">
	<title>...</title>
	<desc>...</desc>
	<clipPath id="clip">
		<rect x="0" y="0" width="620" height="670"/>
	</clipPath>
	<g id="group" transform="scale(1,-1) translate(0,-670)" style="clip-path: url(#clip)">
		<g transform="">
			<rect x="0" y="0" width="620" height="670" style="stroke: none; stroke-linecap: butt; stroke-width: 1; fill: rgb(98%,97%,94%); fill-rule: evenodd;"/>
			<path d="M 40,57.357143 L 40,616.642857 Z" style="stroke: rgb(86%,87%,83%); stroke-linecap: butt; stroke-width: 0.35;"/>
			<path d="M 59.285714,57.357143 L 59.285714,616.642857 Z" style="stroke: rgb(86%,87%,83%); stroke-linecap: butt; stroke-width: 0.35;"/>
			<path d="M 78.571429,57.357143 L 78.571429,616.642857 Z" style="stroke: rgb(86%,87%,83%); stroke-linecap: butt; stroke-width: 0.35;"/>
			<path d="M 97.857143,57.357143 L 97.857143,616.642857 Z" style="stroke: rgb(86%,87%,83%); stroke-linecap: butt; stroke-width: 0.35;"/>
			<path d="M 117.142857,57.357143 L 117.142857,616.642857 Z" style="stroke: rgb(86%,87%,83%); stroke-linecap: butt; stroke-width: 0.35;"/>
			<path d="M 136.428571,57.357143 L 136.428571,616.642857 Z" style="stroke: rgb(86%,87%,83%); stroke-linecap: butt; stroke-width: 0.35;"/>
			<path d="M 155.714286,57.357143 L 155.714286,616.642857 Z" style="stroke: rgb(86%,87%,83%); stroke-linecap: butt; stroke-width: 0.35;"/>
			<path d="M 175,57.357143 L 175,616.642857 Z" style="stroke: rgb(86%,87%,83%); stroke-linecap: butt; stroke-width: 0.35;"/>
			<path d="M 194.285714,57.357143 L 194.285714,616.642857 Z" style="stroke: rgb(86%,87%,83%); stroke-linecap: butt; stroke-width: 0.35;"/>
			<path d="M 213.571429,57.357143 L 213.571429,616.642857 Z" style="stroke: rgb(86%,87%,83%); stroke-linecap: butt; stroke-width: 0.35;"/>
			<path d="M 232.857143,57.357143 L 232.857143,616.642857 Z" style="stroke: rgb(86%,87%,83%); stroke-linecap: butt; stroke-width: 0.35;"/>
			<path d="M 252.142857,57.357143 L 252.142857,616.642857 Z" style="stroke: rgb(86%,87%,83%); stroke-linecap: butt; stroke-width: 0.35;"/>
			<path d="M 271.428571,57.357143 L 271.428571,616.642857 Z" style="stroke: rgb(86%,87%,83%); stroke-linecap: butt; stroke-width: 0.35;"/>
			<path d="M 290.714286,57.357143 L 290.714286,616.642857 Z" style="stroke: rgb(86%,87%,83%); stroke-linecap: butt; stroke-width: 0.35;"/>
			<path d="M 310,57.357143 L 310,616.642857 Z" style="stroke: rgb(86%,87%,83%); stroke-linecap: butt; stroke-width: 0.35;"/>
			<path d="M 329.285714,57.357143 L 329.285714,616.642857 Z" style="stroke: rgb(86%,87%,83%); stroke-linecap: butt; stroke-width: 0.35;"/>
			<path d="M 348.571429,57.357143 L 348.571429,616.642857 Z" style="stroke: rgb(86%,87%,83%); stroke-linecap: butt; stroke-width: 0.35;"/>
			<path d="M 367.857143,57.357143 L 367.857143,616.642857 Z" style="stroke: rgb(86%,87%,83%); stroke-linecap: butt; stroke-width: 0.35;"/>
			<path d="M 387.142857,57.357143 L 387.142857,616.642857 Z" style="stroke: rgb(86%,87%,83%); stroke-linecap: butt; stroke-width: 0.35;"/>
			<path d="M 406.428571,57.357143 L 406.428571,616.642857 Z" style="stroke: rgb(86%,87%,83%); stroke-linecap: butt; stroke-width: 0.35;"/>
			<path d="M 425.714286,57.357143 L 425.714286,616.642857 Z" style="stroke: rgb(86%,87%,83%); stroke-linecap: butt; stroke-width: 0.35;"/>
			<path d="M 445,57.357143 L 445,616.642857 Z" style="stroke: rgb(86%,87%,83%); stroke-linecap: butt; stroke-width: 0.35;"/>
			<path d="M 464.285714,57.357143 L 464.285714,616.642857 Z" style="stroke: rgb(86%,87%,83%); stroke-linecap: butt; stroke-width: 0.35;"/>
			<path d="M 483.571429,57.357143 L 483.571429,616.642857 Z" style="stroke: rgb(86%,87%,83%); stroke-linecap: butt; stroke-width: 0.35;"/>
			<path d="M 502.857143,57.357143 L 502.857143,616.642857 Z" style="stroke: rgb(86%,87%,83%); stroke-linecap: butt; stroke-width: 0.35;"/>
			<path d="M 522.142857,57.357143 L 522.142857,616.642857 Z" style="stroke: rgb(86%,87%,83%); stroke-linecap: butt; stroke-width: 0.35;"/>
			<path d="M 541.428571,57.357143 L 541.428571,616.642857 Z" style="stroke: rgb(86%,87%,83%); stroke-linecap: butt; stroke-width: 0.35;"/>
			<path d="M 560.714286,57.357143 L 560.714286,616.642857 Z" style="stroke: rgb(86%,87%,83%); stroke-linecap: butt; stroke-width: 0.35;"/>
			<path d="M 580,57.357143 L 580,616.642857 Z" style="stroke: rgb(86%,87%,83%); stroke-linecap: butt; stroke-width: 0.35;"/>
			<path d="M 40,57.357143 L 580,57.357143 Z" style="stroke: rgb(86%,87%,83%); stroke-linecap: butt; stroke-width: 0.35;"/>
			<path d="M 40,76.642857 L 580,76.642857 Z" style="stroke: rgb(86%,87%,83%); stroke-linecap: butt; stroke-width: 0.35;"/>
			<path d="M 40,95.928571 L 580,95.928571 Z" style="stroke: rgb(86%,87%,83%); stroke-linecap: butt; stroke-width: 0.35;"/>
			<path d="M 40,115.214286 L 580,115.214286 Z" style="stroke: rgb(86%,87%,83%); stroke-linecap: butt; stroke-width: 0.35;"/>
			<path d="M 40,134.5 L 580,134.5 Z" style="stroke: rgb(86%,87%,83%); stroke-linecap: butt; stroke-width: 0.35;"/>
			<path d="M 40,153.785714 L 580,153.785714 Z" style="stroke: rgb(86%,87%,83%); stroke-linecap: butt; stroke-width: 0.35;"/>
			<path d="M 40,173.071429 L 580,173.071429 Z" style="stroke: rgb(86%,87%,83%); stroke-linecap: butt; stroke-width: 0.35;"/>
			<path d="M 40,192.357143 L 580,192.357143 Z" style="stroke: rgb(86%,87%,83%); stroke-linecap: butt; stroke-width: 0.35;"/>
			<path d="M 40,211.642857 L 580,211.642857 Z" style="stroke: rgb(86%,87%,83%); stroke-linecap: butt; stroke-width: 0.35;"/>
			<path d="M 40,230.928571 L 580,230.928571 Z" style="stroke: rgb(86%,87%,83%); stroke-linecap: butt; stroke-width: 0.35;"/>
			<path d="M 40,250.214286 L 580,250.214286 Z" style="stroke: rgb(86%,87%,83%); stroke-linecap: butt; stroke-width: 0.35;"/>
			<path d="M 40,269.5 L 580,269.5 Z" style="stroke: rgb(86%,87%,83%); stroke-linecap: butt; stroke-width: 0.35;"/>
			<path d="M 40,288.785714 L 580,288.785714 Z" style="stroke: rgb(86%,87%,83%); stroke-linecap: butt; stroke-width: 0.35;"/>
			<path d="M 40,308.071429 L 580,308.071429 Z" style="stroke: rgb(86%,87%,83%); stroke-linecap: butt; stroke-width: 0.35;"/>
			<path d="M 40,327.357143 L 580,327.357143 Z" style="stroke: rgb(86%,87%,83%); stroke-linecap: butt; stroke-width: 0.35;"/>
			<path d="M 40,346.642857 L 580,346.642857 Z" style="stroke: rgb(86%,87%,83%); stroke-linecap: butt; stroke-width: 0.35;"/>
			<path d="M 40,365.928571 L 580,365.928571 Z" style="stroke: rgb(86%,87%,83%); stroke-linecap: butt; stroke-width: 0.35;"/>
			<path d="M 40,385.214286 L 580,385.214286 Z" style="stroke: rgb(86%,87%,83%); stroke-linecap: butt; stroke-width: 0.35;"/>
			<path d="M 40,404.5 L 580,404.5 Z" style="stroke: rgb(86%,87%,83%); stroke-linecap: butt; stroke-width: 0.35;"/>
			<path d="M 40,423.785714 L 580,423.785714 Z" style="stroke: rgb(86%,87%,83%); stroke-linecap: butt; stroke-width: 0.35;"/>
			<path d="M 40,443.071429 L 580,443.071429 Z" style="stroke: rgb(86%,87%,83%); stroke-linecap: butt; stroke-width: 0.35;"/>
			<path d="M 40,462.357143 L 580,462.357143 Z" style="stroke: rgb(86%,87%,83%); stroke-linecap: butt; stroke-width: 0.35;"/>
			<path d="M 40,481.642857 L 580,481.642857 Z" style="stroke: rgb(86%,87%,83%); stroke-linecap: butt; stroke-width: 0.35;"/>
			<path d="M 40,500.928571 L 580,500.928571 Z" style="stroke: rgb(86%,87%,83%); stroke-linecap: butt; stroke-width: 0.35;"/>
			<path d="M 40,520.214286 L 580,520.214286 Z" style="stroke: rgb(86%,87%,83%); stroke-linecap: butt; stroke-width: 0.35;"/>
			<path d="M 40,539.5 L 580,539.5 Z" style="stroke: rgb(86%,87%,83%); stroke-linecap: butt; stroke-width: 0.35;"/>
			<path d="M 40,558.785714 L 580,558.785714 Z" style="stroke: rgb(86%,87%,83%); stroke-linecap: butt; stroke-width: 0.35;"/>
			<path d="M 40,578.071429 L 580,578.071429 Z" style="stroke: rgb(86%,87%,83%); stroke-linecap: butt; stroke-width: 0.35;"/>
			<path d="M 40,597.357143 L 580,597.357143 Z" style="stroke: rgb(86%,87%,83%); stroke-linecap: butt; stroke-width: 0.35;"/>
			<path d="M 40,616.642857 L 580,616.642857 Z" style="stroke: rgb(86%,87%,83%); stroke-linecap: butt; stroke-width: 0.35;"/>
			<rect x="40.0" y="57.35714285714289" width="540.0" height="559.2857142857142" style="stroke: rgb(66%,71%,67%); stroke-linecap: butt; stroke-width: 0.8; fill: none; fill-rule: evenodd;"/>
			<text x="73.39833286830357" y="43.35714285714289" style="font-family: Atlas; font-size: 7px;fill: rgb(14%,20%,18%); stroke:none;" transform="translate(0,86) scale(1,-1)">-24</text>
			<text x="131.25547572544642" y="43.35714285714289" style="font-family: Atlas; font-size: 7px;fill: rgb(14%,20%,18%); stroke:none;" transform="translate(0,86) scale(1,-1)">-18</text>
			<text x="189.11261858258928" y="43.35714285714289" style="font-family: Atlas; font-size: 7px;fill: rgb(14%,20%,18%); stroke:none;" transform="translate(0,86) scale(1,-1)">-12</text>
			<text x="248.85648018973214" y="43.35714285714289" style="font-family: Atlas; font-size: 7px;fill: rgb(14%,20%,18%); stroke:none;" transform="translate(0,86) scale(1,-1)">-6</text>
			<text x="308.11328125" y="43.35714285714289" style="font-family: Atlas; font-size: 7px;fill: rgb(14%,20%,18%); stroke:none;" transform="translate(0,86) scale(1,-1)">0</text>
			<text x="365.97042410714283" y="43.35714285714289" style="font-family: Atlas; font-size: 7px;fill: rgb(14%,20%,18%); stroke:none;" transform="translate(0,86) scale(1,-1)">6</text>
			<text x="421.94084821428567" y="43.35714285714289" style="font-family: Atlas; font-size: 7px;fill: rgb(14%,20%,18%); stroke:none;" transform="translate(0,86) scale(1,-1)">12</text>
			<text x="479.79799107142856" y="43.35714285714289" style="font-family: Atlas; font-size: 7px;fill: rgb(14%,20%,18%); stroke:none;" transform="translate(0,86) scale(1,-1)">18</text>
			<text x="537.6551339285713" y="43.35714285714289" style="font-family: Atlas; font-size: 7px;fill: rgb(14%,20%,18%); stroke:none;" transform="translate(0,86) scale(1,-1)">24</text>
			<text x="22.65380859375" y="74.64285714285717" style="font-family: Atlas; font-size: 7px;fill: rgb(14%,20%,18%); stroke:none;" transform="translate(0,149) scale(1,-1)">-18</text>
			<text x="22.65380859375" y="132.50000000000003" style="font-family: Atlas; font-size: 7px;fill: rgb(14%,20%,18%); stroke:none;" transform="translate(0,265) scale(1,-1)">-12</text>
			<text x="26.42724609375" y="190.3571428571429" style="font-family: Atlas; font-size: 7px;fill: rgb(14%,20%,18%); stroke:none;" transform="translate(0,380) scale(1,-1)">-6</text>
			<text x="29.2265625" y="248.21428571428572" style="font-family: Atlas; font-size: 7px;fill: rgb(14%,20%,18%); stroke:none;" transform="translate(0,496) scale(1,-1)">0</text>
			<text x="29.2265625" y="306.07142857142856" style="font-family: Atlas; font-size: 7px;fill: rgb(14%,20%,18%); stroke:none;" transform="translate(0,612) scale(1,-1)">6</text>
			<text x="25.453125" y="363.92857142857144" style="font-family: Atlas; font-size: 7px;fill: rgb(14%,20%,18%); stroke:none;" transform="translate(0,727) scale(1,-1)">12</text>
			<text x="25.453125" y="421.7857142857143" style="font-family: Atlas; font-size: 7px;fill: rgb(14%,20%,18%); stroke:none;" transform="translate(0,843) scale(1,-1)">18</text>
			<text x="25.453125" y="479.64285714285717" style="font-family: Atlas; font-size: 7px;fill: rgb(14%,20%,18%); stroke:none;" transform="translate(0,959) scale(1,-1)">24</text>
			<text x="25.453125" y="537.5" style="font-family: Atlas; font-size: 7px;fill: rgb(14%,20%,18%); stroke:none;" transform="translate(0,1075) scale(1,-1)">30</text>
			<text x="25.453125" y="595.3571428571429" style="font-family: Atlas; font-size: 7px;fill: rgb(14%,20%,18%); stroke:none;" transform="translate(0,1190) scale(1,-1)">36</text>
			<rect x="261.7857142857143" y="95.92857142857146" width="96.42857142857139" height="106.07142857142857" style="stroke: rgb(49%,55%,51%); stroke-linecap: butt; stroke-width: 0.65; fill: rgb(81%,84%,80%); fill-rule: evenodd;"/>
			<text x="305.271484375" y="150.96428571428572" style="font-family: AtlasBold; font-size: 8px;fill: rgb(14%,20%,18%); stroke:none;" transform="translate(0,301) scale(1,-1)">Z1</text>
			<rect x="387.1428571428571" y="230.92857142857144" width="86.78571428571428" height="48.21428571428572" style="stroke: rgb(49%,55%,51%); stroke-linecap: butt; stroke-width: 0.65; fill: rgb(83%,89%,79%); fill-rule: evenodd;"/>
			<text x="425.8071986607143" y="257.03571428571433" style="font-family: AtlasBold; font-size: 8px;fill: rgb(14%,20%,18%); stroke:none;" transform="translate(0,514) scale(1,-1)">Z2</text>
			<rect x="261.7857142857143" y="365.92857142857144" width="96.42857142857139" height="96.42857142857144" style="stroke: rgb(49%,55%,51%); stroke-linecap: butt; stroke-width: 0.65; fill: rgb(83%,89%,79%); fill-rule: evenodd;"/>
			<text x="305.271484375" y="416.14285714285717" style="font-family: AtlasBold; font-size: 8px;fill: rgb(14%,20%,18%); stroke:none;" transform="translate(0,832) scale(1,-1)">Z3</text>
			<rect x="194.28571428571428" y="259.8571428571429" width="57.85714285714286" height="125.35714285714283" style="stroke: rgb(49%,55%,51%); stroke-linecap: butt; stroke-width: 0.65; fill: rgb(93%,79%,76%); fill-rule: evenodd;"/>
			<text x="218.4857700892857" y="324.5357142857143" style="font-family: AtlasBold; font-size: 8px;fill: rgb(14%,20%,18%); stroke:none;" transform="translate(0,649) scale(1,-1)">Z4</text>
			<rect x="396.7857142857143" y="269.5" width="67.5" height="144.6428571428571" style="stroke: rgb(49%,55%,51%); stroke-linecap: butt; stroke-width: 0.65; fill: rgb(93%,79%,76%); fill-rule: evenodd;"/>
			<text x="425.8071986607143" y="343.8214285714286" style="font-family: AtlasBold; font-size: 8px;fill: rgb(14%,20%,18%); stroke:none;" transform="translate(0,687) scale(1,-1)">Z5</text>
			<rect x="155.71428571428572" y="385.2142857142857" width="67.5" height="106.07142857142856" style="stroke: rgb(49%,55%,51%); stroke-linecap: butt; stroke-width: 0.65; fill: rgb(83%,89%,79%); fill-rule: evenodd;"/>
			<text x="184.7357700892857" y="440.25" style="font-family: AtlasBold; font-size: 8px;fill: rgb(14%,20%,18%); stroke:none;" transform="translate(0,880) scale(1,-1)">Z6</text>
			<rect x="261.7857142857143" y="520.2142857142858" width="96.42857142857139" height="67.5" style="stroke: rgb(49%,55%,51%); stroke-linecap: butt; stroke-width: 0.65; fill: rgb(83%,89%,79%); fill-rule: evenodd;"/>
			<text x="305.271484375" y="555.9642857142858" style="font-family: AtlasBold; font-size: 8px;fill: rgb(14%,20%,18%); stroke:none;" transform="translate(0,1111) scale(1,-1)">Z7</text>
			<rect x="49.64285714285714" y="423.7857142857143" width="86.78571428571428" height="173.5714285714286" style="stroke: rgb(49%,55%,51%); stroke-linecap: butt; stroke-width: 0.65; fill: rgb(65%,71%,74%); fill-rule: evenodd;"/>
			<text x="88.30719866071428" y="512.5714285714286" style="font-family: AtlasBold; font-size: 8px;fill: rgb(14%,20%,18%); stroke:none;" transform="translate(0,1025) scale(1,-1)">Z8</text>
			<rect x="483.57142857142856" y="423.7857142857143" width="96.42857142857144" height="183.21428571428572" style="stroke: rgb(49%,55%,51%); stroke-linecap: butt; stroke-width: 0.65; fill: rgb(78%,78%,72%); fill-rule: evenodd;"/>
			<text x="527.0571986607142" y="517.3928571428571" style="font-family: AtlasBold; font-size: 8px;fill: rgb(14%,20%,18%); stroke:none;" transform="translate(0,1034) scale(1,-1)">Z9</text>
			<polyline points="310 115.2143, 310 192.3571" style="stroke: rgb(44%,35%,19%); stroke-linecap: round; stroke-width: 38.57142857142857; fill: None; fill-rule: evenodd;"/>
			<polyline points="310 115.2143, 310 192.3571" style="stroke: rgb(44%,35%,19%); stroke-linecap: butt; stroke-width: 1; fill: None; fill-rule: evenodd;"/>
			<polyline points="310 192.3571, 310 279.1429" style="stroke: rgb(44%,35%,19%); stroke-linecap: round; stroke-width: 38.57142857142857; fill: None; fill-rule: evenodd;"/>
			<polyline points="310 192.3571, 310 279.1429" style="stroke: rgb(44%,35%,19%); stroke-linecap: butt; stroke-width: 1; fill: None; fill-rule: evenodd;"/>
			<polyline points="310 279.1429, 310 346.6429" style="stroke: rgb(44%,35%,19%); stroke-linecap: round; stroke-width: 38.57142857142857; fill: None; fill-rule: evenodd;"/>
			<polyline points="310 279.1429, 310 346.6429" style="stroke: rgb(44%,35%,19%); stroke-linecap: butt; stroke-width: 1; fill: None; fill-rule: evenodd;"/>
			<polyline points="310 346.6429, 310 414.1429" style="stroke: rgb(44%,35%,19%); stroke-linecap: round; stroke-width: 38.57142857142857; fill: None; fill-rule: evenodd;"/>
			<polyline points="310 346.6429, 310 414.1429" style="stroke: rgb(44%,35%,19%); stroke-linecap: butt; stroke-width: 1; fill: None; fill-rule: evenodd;"/>
			<polyline points="310 414.1429, 310 491.2857" style="stroke: rgb(44%,35%,19%); stroke-linecap: round; stroke-width: 38.57142857142857; fill: None; fill-rule: evenodd;"/>
			<polyline points="310 414.1429, 310 491.2857" style="stroke: rgb(44%,35%,19%); stroke-linecap: butt; stroke-width: 1; fill: None; fill-rule: evenodd;"/>
			<polyline points="310 491.2857, 310 558.7857" style="stroke: rgb(44%,35%,19%); stroke-linecap: round; stroke-width: 38.57142857142857; fill: None; fill-rule: evenodd;"/>
			<polyline points="310 491.2857, 310 558.7857" style="stroke: rgb(44%,35%,19%); stroke-linecap: butt; stroke-width: 1; fill: None; fill-rule: evenodd;"/>
			<text x="314.0" y="284.14285714285717" style="font-family: AtlasBold; font-size: 7px;fill: rgb(44%,35%,19%); stroke:none;" transform="translate(0,568) scale(1,-1)">A1</text>
			<polyline points="310 250.2143, 223.2143 279.1429" style="stroke: rgb(7%,41%,47%); stroke-linecap: round; stroke-width: 34.714285714285715; fill: None; fill-rule: evenodd;"/>
			<polyline points="310 250.2143, 223.2143 279.1429" style="stroke: rgb(7%,41%,47%); stroke-linecap: butt; stroke-width: 1; fill: None; fill-rule: evenodd;"/>
			<polyline points="223.2143 279.1429, 223.2143 317.7143" style="stroke: rgb(7%,41%,47%); stroke-linecap: round; stroke-width: 34.714285714285715; fill: None; fill-rule: evenodd;"/>
			<polyline points="223.2143 279.1429, 223.2143 317.7143" style="stroke: rgb(7%,41%,47%); stroke-linecap: butt; stroke-width: 1; fill: None; fill-rule: evenodd;"/>
			<polyline points="223.2143 317.7143, 223.2143 356.2857" style="stroke: rgb(7%,41%,47%); stroke-linecap: round; stroke-width: 34.714285714285715; fill: None; fill-rule: evenodd;"/>
			<polyline points="223.2143 317.7143, 223.2143 356.2857" style="stroke: rgb(7%,41%,47%); stroke-linecap: butt; stroke-width: 1; fill: None; fill-rule: evenodd;"/>
			<polyline points="223.2143 356.2857, 194.2857 404.5" style="stroke: rgb(7%,41%,47%); stroke-linecap: round; stroke-width: 34.714285714285715; fill: None; fill-rule: evenodd;"/>
			<polyline points="223.2143 356.2857, 194.2857 404.5" style="stroke: rgb(7%,41%,47%); stroke-linecap: butt; stroke-width: 1; fill: None; fill-rule: evenodd;"/>
			<polyline points="194.2857 404.5, 213.5714 443.0714" style="stroke: rgb(7%,41%,47%); stroke-linecap: round; stroke-width: 34.714285714285715; fill: None; fill-rule: evenodd;"/>
			<polyline points="194.2857 404.5, 213.5714 443.0714" style="stroke: rgb(7%,41%,47%); stroke-linecap: butt; stroke-width: 1; fill: None; fill-rule: evenodd;"/>
			<polyline points="213.5714 443.0714, 310 414.1429" style="stroke: rgb(7%,41%,47%); stroke-linecap: round; stroke-width: 34.714285714285715; fill: None; fill-rule: evenodd;"/>
			<polyline points="213.5714 443.0714, 310 414.1429" style="stroke: rgb(7%,41%,47%); stroke-linecap: butt; stroke-width: 1; fill: None; fill-rule: evenodd;"/>
			<text x="227.2142857142857" y="322.7142857142857" style="font-family: AtlasBold; font-size: 7px;fill: rgb(7%,41%,47%); stroke:none;" transform="translate(0,645) scale(1,-1)">A2</text>
			<polyline points="310 250.2143, 387.1429 259.8571" style="stroke: rgb(7%,41%,47%); stroke-linecap: round; stroke-width: 36.64285714285714; fill: None; fill-rule: evenodd;"/>
			<polyline points="310 250.2143, 387.1429 259.8571" style="stroke: rgb(7%,41%,47%); stroke-linecap: butt; stroke-width: 1; fill: None; fill-rule: evenodd;"/>
			<polyline points="387.1429 259.8571, 425.7143 288.7857" style="stroke: rgb(7%,41%,47%); stroke-linecap: round; stroke-width: 36.64285714285714; fill: None; fill-rule: evenodd;"/>
			<polyline points="387.1429 259.8571, 425.7143 288.7857" style="stroke: rgb(7%,41%,47%); stroke-linecap: butt; stroke-width: 1; fill: None; fill-rule: evenodd;"/>
			<polyline points="425.7143 288.7857, 425.7143 327.3571" style="stroke: rgb(7%,41%,47%); stroke-linecap: round; stroke-width: 36.64285714285714; fill: None; fill-rule: evenodd;"/>
			<polyline points="425.7143 288.7857, 425.7143 327.3571" style="stroke: rgb(7%,41%,47%); stroke-linecap: butt; stroke-width: 1; fill: None; fill-rule: evenodd;"/>
			<polyline points="425.7143 327.3571, 425.7143 365.9286" style="stroke: rgb(7%,41%,47%); stroke-linecap: round; stroke-width: 36.64285714285714; fill: None; fill-rule: evenodd;"/>
			<polyline points="425.7143 327.3571, 425.7143 365.9286" style="stroke: rgb(7%,41%,47%); stroke-linecap: butt; stroke-width: 1; fill: None; fill-rule: evenodd;"/>
			<polyline points="425.7143 365.9286, 425.7143 404.5" style="stroke: rgb(7%,41%,47%); stroke-linecap: round; stroke-width: 36.64285714285714; fill: None; fill-rule: evenodd;"/>
			<polyline points="425.7143 365.9286, 425.7143 404.5" style="stroke: rgb(7%,41%,47%); stroke-linecap: butt; stroke-width: 1; fill: None; fill-rule: evenodd;"/>
			<polyline points="425.7143 404.5, 348.5714 423.7857" style="stroke: rgb(7%,41%,47%); stroke-linecap: round; stroke-width: 36.64285714285714; fill: None; fill-rule: evenodd;"/>
			<polyline points="425.7143 404.5, 348.5714 423.7857" style="stroke: rgb(7%,41%,47%); stroke-linecap: butt; stroke-width: 1; fill: None; fill-rule: evenodd;"/>
			<polyline points="348.5714 423.7857, 310 414.1429" style="stroke: rgb(7%,41%,47%); stroke-linecap: round; stroke-width: 36.64285714285714; fill: None; fill-rule: evenodd;"/>
			<polyline points="348.5714 423.7857, 310 414.1429" style="stroke: rgb(7%,41%,47%); stroke-linecap: butt; stroke-width: 1; fill: None; fill-rule: evenodd;"/>
			<text x="429.71428571428567" y="332.3571428571429" style="font-family: AtlasBold; font-size: 7px;fill: rgb(7%,41%,47%); stroke:none;" transform="translate(0,664) scale(1,-1)">A3</text>
			<polyline points="194.2857 288.7857, 165.3571 288.7857" style="stroke: rgb(7%,41%,47%); stroke-linecap: round; stroke-width: 32.785714285714285; fill: None; fill-rule: evenodd;"/>
			<polyline points="194.2857 288.7857, 165.3571 288.7857" style="stroke: rgb(7%,41%,47%); stroke-linecap: butt; stroke-width: 1; fill: None; fill-rule: evenodd;"/>
			<polyline points="165.3571 288.7857, 165.3571 404.5" style="stroke: rgb(7%,41%,47%); stroke-linecap: round; stroke-width: 32.785714285714285; fill: None; fill-rule: evenodd;"/>
			<polyline points="165.3571 288.7857, 165.3571 404.5" style="stroke: rgb(7%,41%,47%); stroke-linecap: butt; stroke-width: 1; fill: None; fill-rule: evenodd;"/>
			<polyline points="165.3571 404.5, 194.2857 462.3571" style="stroke: rgb(7%,41%,47%); stroke-linecap: round; stroke-width: 32.785714285714285; fill: None; fill-rule: evenodd;"/>
			<polyline points="165.3571 404.5, 194.2857 462.3571" style="stroke: rgb(7%,41%,47%); stroke-linecap: butt; stroke-width: 1; fill: None; fill-rule: evenodd;"/>
			<polyline points="194.2857 462.3571, 310 491.2857" style="stroke: rgb(7%,41%,47%); stroke-linecap: round; stroke-width: 32.785714285714285; fill: None; fill-rule: evenodd;"/>
			<polyline points="194.2857 462.3571, 310 491.2857" style="stroke: rgb(7%,41%,47%); stroke-linecap: butt; stroke-width: 1; fill: None; fill-rule: evenodd;"/>
			<text x="169.35714285714283" y="293.78571428571433" style="font-family: AtlasBold; font-size: 7px;fill: rgb(7%,41%,47%); stroke:none;" transform="translate(0,587) scale(1,-1)">A4</text>
			<circle cx="310.0" cy="558.7857142857142" r="14.464285714285714" style="stroke: rgb(73%,51%,14%); stroke-linecap: butt; stroke-width: 1.7; fill: rgb(73%,51%,14%); fill-rule: evenodd; stroke-dasharray: 3, 2;"/>
			<text x="327.4642857142857" y="562.7857142857142" style="font-family: AtlasBold; font-size: 7px;fill: rgb(73%,51%,14%); stroke:none;" transform="translate(0,1125) scale(1,-1)">PORTAL</text>
			<circle cx="310.0" cy="115.21428571428575" r="3.8" style="stroke: rgb(13%,35%,52%); stroke-linecap: butt; stroke-width: 1.2; fill: rgb(100%,100%,100%); fill-rule: evenodd;"/>
			<text x="315.0" y="108.21428571428575" style="font-family: AtlasBold; font-size: 7px;fill: rgb(13%,35%,52%); stroke:none;" transform="translate(0,216) scale(1,-1)">K1</text>
			<circle cx="310.0" cy="558.7857142857142" r="3.8" style="stroke: rgb(13%,35%,52%); stroke-linecap: butt; stroke-width: 1.2; fill: rgb(100%,100%,100%); fill-rule: evenodd;"/>
			<text x="315.0" y="551.7857142857142" style="font-family: AtlasBold; font-size: 7px;fill: rgb(13%,35%,52%); stroke:none;" transform="translate(0,1103) scale(1,-1)">K2</text>
			<circle cx="271.42857142857144" cy="192.3571428571429" r="3.8" style="stroke: rgb(13%,35%,52%); stroke-linecap: butt; stroke-width: 1.2; fill: rgb(100%,100%,100%); fill-rule: evenodd;"/>
			<text x="276.42857142857144" y="185.3571428571429" style="font-family: AtlasBold; font-size: 7px;fill: rgb(13%,35%,52%); stroke:none;" transform="translate(0,370) scale(1,-1)">K3</text>
			<circle cx="387.1428571428571" cy="259.8571428571429" r="3.8" style="stroke: rgb(13%,35%,52%); stroke-linecap: butt; stroke-width: 1.2; fill: rgb(100%,100%,100%); fill-rule: evenodd;"/>
			<text x="392.1428571428571" y="252.8571428571429" style="font-family: AtlasBold; font-size: 7px;fill: rgb(13%,35%,52%); stroke:none;" transform="translate(0,505) scale(1,-1)">K4</text>
			<circle cx="223.2142857142857" cy="279.14285714285717" r="2.1" style="stroke: rgb(13%,35%,52%); stroke-linecap: butt; stroke-width: 1.2; fill: rgb(100%,100%,100%); fill-rule: evenodd;"/>
			<circle cx="194.28571428571428" cy="288.78571428571433" r="2.1" style="stroke: rgb(13%,35%,52%); stroke-linecap: butt; stroke-width: 1.2; fill: rgb(100%,100%,100%); fill-rule: evenodd;"/>
			<circle cx="425.71428571428567" cy="346.64285714285717" r="2.1" style="stroke: rgb(13%,35%,52%); stroke-linecap: butt; stroke-width: 1.2; fill: rgb(100%,100%,100%); fill-rule: evenodd;"/>
			<circle cx="194.28571428571428" cy="404.5" r="2.1" style="stroke: rgb(13%,35%,52%); stroke-linecap: butt; stroke-width: 1.2; fill: rgb(100%,100%,100%); fill-rule: evenodd;"/>
			<circle cx="425.71428571428567" cy="462.3571428571429" r="2.1" style="stroke: rgb(13%,35%,52%); stroke-linecap: butt; stroke-width: 1.2; fill: rgb(100%,100%,100%); fill-rule: evenodd;"/>
			<circle cx="425.71428571428567" cy="288.78571428571433" r="2.1" style="stroke: rgb(13%,35%,52%); stroke-linecap: butt; stroke-width: 1.2; fill: rgb(100%,100%,100%); fill-rule: evenodd;"/>
			<circle cx="194.28571428571428" cy="404.5" r="2.1" style="stroke: rgb(13%,35%,52%); stroke-linecap: butt; stroke-width: 1.2; fill: rgb(100%,100%,100%); fill-rule: evenodd;"/>
			<circle cx="425.71428571428567" cy="288.78571428571433" r="2.1" style="stroke: rgb(13%,35%,52%); stroke-linecap: butt; stroke-width: 1.2; fill: rgb(100%,100%,100%); fill-rule: evenodd;"/>
			<circle cx="223.2142857142857" cy="317.7142857142857" r="2.1" style="stroke: rgb(13%,35%,52%); stroke-linecap: butt; stroke-width: 1.2; fill: rgb(100%,100%,100%); fill-rule: evenodd;"/>
			<circle cx="223.2142857142857" cy="356.2857142857143" r="2.1" style="stroke: rgb(13%,35%,52%); stroke-linecap: butt; stroke-width: 1.2; fill: rgb(100%,100%,100%); fill-rule: evenodd;"/>
			<circle cx="425.71428571428567" cy="327.3571428571429" r="2.1" style="stroke: rgb(13%,35%,52%); stroke-linecap: butt; stroke-width: 1.2; fill: rgb(100%,100%,100%); fill-rule: evenodd;"/>
			<circle cx="425.71428571428567" cy="365.92857142857144" r="2.1" style="stroke: rgb(13%,35%,52%); stroke-linecap: butt; stroke-width: 1.2; fill: rgb(100%,100%,100%); fill-rule: evenodd;"/>
			<polygon points="310 613, 316 607, 310 601, 304 607" style="stroke: rgb(50%,35%,15%); stroke-linecap: butt; stroke-width: 1; fill: rgb(79%,56%,26%); fill-rule: evenodd;"/>
			<text x="317.0" y="614.0" style="font-family: AtlasBold; font-size: 9px;fill: rgb(43%,26%,6%); stroke:none;" transform="translate(0,1228) scale(1,-1)">L1</text>
			<polygon points="411.25 256.2143, 417.25 250.2143, 411.25 244.2143, 405.25 250.2143" style="stroke: rgb(50%,35%,15%); stroke-linecap: butt; stroke-width: 1; fill: rgb(79%,56%,26%); fill-rule: evenodd;"/>
			<text x="418.25" y="257.2142857142857" style="font-family: AtlasBold; font-size: 9px;fill: rgb(43%,26%,6%); stroke:none;" transform="translate(0,514) scale(1,-1)">L2</text>
			<polygon points="155.7143 478, 161.7143 472, 155.7143 466, 149.7143 472" style="stroke: rgb(50%,35%,15%); stroke-linecap: butt; stroke-width: 1; fill: rgb(79%,56%,26%); fill-rule: evenodd;"/>
			<text x="162.71428571428572" y="479.0" style="font-family: AtlasBold; font-size: 9px;fill: rgb(43%,26%,6%); stroke:none;" transform="translate(0,958) scale(1,-1)">L3</text>
			<text x="586.71044921875" y="643" style="font-family: Atlas; font-size: 9px;fill: rgb(14%,20%,18%); stroke:none;" transform="translate(0,1286) scale(1,-1)">+Z</text>
			<path d="M 594,622 L 594,638 Z" style="stroke: rgb(14%,20%,18%); stroke-linecap: butt; stroke-width: 1;"/>
			<polygon points="594 640, 591 634, 597 634" style="stroke: none; stroke-linecap: butt; stroke-width: 1; fill: rgb(14%,20%,18%); fill-rule: evenodd;"/>
			<path d="M 40,18 L 136.428571,18 Z" style="stroke: rgb(14%,20%,18%); stroke-linecap: butt; stroke-width: 2;"/>
			<text x="60.38225446428571" y="5" style="font-family: Atlas; font-size: 8px;fill: rgb(14%,20%,18%); stroke:none;" transform="translate(0,10) scale(1,-1)">10m | grade 2m</text>
			<text x="492.2158203125" y="17" style="font-family: AtlasBold; font-size: 9px;fill: rgb(14%,20%,18%); stroke:none;" transform="translate(0,34) scale(1,-1)">COMPOSIÇÃO PROPOSTA</text>
		</g>
	</g>
</svg>